<?xml version="1.0" encoding="utf-8"?>
<!-- Generator: Adobe Illustrator 27.5.0, SVG Export Plug-In . SVG Version: 6.00 Build 0)  -->
<svg version="1.1" id="Layer_1" xmlns="http://www.w3.org/2000/svg" xmlns:xlink="http://www.w3.org/1999/xlink" x="0px" y="0px"
	 viewBox="0 0 5000 2916" style="enable-background:new 0 0 5000 2916;" xml:space="preserve">
<g>
	<rect style="fill-rule:evenodd;clip-rule:evenodd;fill:#FFFFFF;" width="5000" height="2916"/>
	<path style="fill:#B3B3B3;" d="M4727.218,263.04c-0.945-0.492-1.879-0.919-2.824-1.405c0.932,0.598,1.866,1.174,2.798,1.773
		c0.916,0.532,1.832,1.015,2.75,1.551C4729.034,264.309,4728.126,263.687,4727.218,263.04 M247.507,782.937
		c-1.216-0.978-2.437-1.967-3.653-2.95c-0.898-0.492-1.798-0.997-2.693-1.487c1.353,0.996,2.706,2.001,4.059,2.994
		C245.983,781.983,246.743,782.449,247.507,782.937z M4696.208,245.724c-1.005-0.431-2.014-0.88-3.014-1.305
		c0.926,0.498,1.842,0.952,2.769,1.455c1.037,0.504,2.08,1.043,3.122,1.553C4698.126,246.844,4697.166,246.303,4696.208,245.724z
		 M4712.934,252.973c-2.332-1.002-4.664-2.015-6.999-3.033c2.198,1.357,4.398,2.801,6.593,4.178
		c2.303,1.157,4.604,2.303,6.904,3.435C4717.267,256.032,4715.101,254.477,4712.934,252.973z M262.835,792.593
		c-2.208-1.915-4.422-3.855-6.638-5.788c-1.719-0.926-3.445-1.919-5.164-2.855c2.269,1.836,4.538,3.67,6.804,5.497
		C259.503,790.498,261.169,791.544,262.835,792.593z M272.645,801.155c-0.948-0.822-1.9-1.658-2.853-2.487
		c-0.811-0.51-1.624-1.028-2.435-1.536c0.976,0.787,1.956,1.59,2.929,2.366C271.074,800.057,271.858,800.594,272.645,801.155z
		 M4663.371,230.384c-0.961-0.324-1.924-0.658-2.885-0.98c0.921,0.409,1.848,0.864,2.769,1.278c0.95,0.371,1.9,0.762,2.851,1.137
		C4665.197,231.356,4664.282,230.844,4663.371,230.384z M4679.555,235.868c-2.474-0.884-4.922-1.651-7.388-2.504
		c2.3,1.191,4.606,2.422,6.906,3.631c2.445,0.994,4.875,1.898,7.322,2.923C4684.116,238.567,4681.834,237.202,4679.555,235.868z
		 M4697.869,242.679c-3.556-1.336-7.114-2.69-10.657-3.964c3.227,1.921,6.451,3.774,9.681,5.731c3.409,1.444,6.828,2.95,10.241,4.44
		C4704.046,246.77,4700.956,244.759,4697.869,242.679z M277.104,801.585c-3.079-2.86-6.172-5.761-9.262-8.652
		c-2.024-1.072-4.035-2.068-6.056-3.149c2.956,2.582,5.911,5.169,8.862,7.733C272.798,798.861,274.953,800.25,277.104,801.585z
		 M288.813,812.521c-2.045-1.894-4.101-3.824-6.156-5.75c-1.679-1.035-3.369-2.14-5.051-3.181c2.074,1.813,4.148,3.633,6.214,5.421
		C285.487,810.184,287.15,811.353,288.813,812.521z M298.218,821.306c-0.611-0.566-1.229-1.148-1.845-1.721
		c-0.747-0.523-1.498-1.06-2.245-1.582c0.476,0.413,0.961,0.847,1.434,1.255C296.449,819.947,297.331,820.616,298.218,821.306z
		 M4627.718,216.977c-1.032-0.255-2.061-0.509-3.095-0.771c0.963,0.342,1.929,0.712,2.893,1.054
		c1.034,0.318,2.068,0.638,3.105,0.952C4629.655,217.81,4628.684,217.374,4627.718,216.977z M4645.729,221.778
		c-2.961-0.845-5.93-1.717-8.873-2.497c2.348,0.989,4.693,1.989,7.043,2.996c3.053,0.98,6.13,2.046,9.196,3.092
		C4650.64,224.15,4648.187,222.975,4645.729,221.778z M4664.429,227.036c-3.614-1.012-7.227-2.027-10.841-3.048
		c3.463,1.718,6.917,3.308,10.383,5.067c3.179,1.087,6.359,2.163,9.536,3.233C4670.477,230.54,4667.453,228.751,4664.429,227.036z
		 M4682.264,232.387c-4.014-1.269-8.028-2.54-12.015-3.714c3.313,1.906,6.635,3.945,9.949,5.891
		c4.085,1.443,8.199,3.025,12.31,4.579C4689.094,236.867,4685.68,234.619,4682.264,232.387z M290.453,809.828
		c-3.624-3.591-7.251-7.191-10.883-10.797c-2.337-1.222-4.674-2.414-7.014-3.647c3.661,3.424,7.325,6.859,10.975,10.251
		C285.844,807.058,288.145,808.417,290.453,809.828z M303.761,823.03c-3.027-2.99-6.064-6.014-9.104-9.029
		c-2.003-1.22-3.995-2.353-6.001-3.581c2.874,2.695,5.751,5.396,8.615,8.046C299.431,819.971,301.602,821.536,303.761,823.03z
		 M315.341,834.519c-1.84-1.807-3.69-3.656-5.54-5.497c-1.65-1.133-3.319-2.353-4.969-3.493c1.811,1.698,3.624,3.412,5.425,5.064
		C311.949,831.899,313.646,833.218,315.341,834.519z M324.182,843.29l-0.65-0.645c-0.403-0.306-0.808-0.625-1.208-0.931l0.368,0.33
		L324.182,843.29z M4590.235,206.125c-1.103-0.2-2.185-0.344-3.285-0.538c1.003,0.271,2.006,0.552,3.006,0.823
		c1.116,0.249,2.222,0.475,3.337,0.728C4592.275,206.805,4591.254,206.45,4590.235,206.125z M4610.125,209.973
		c-2.917-0.567-5.841-1.155-8.754-1.704c2.614,0.866,5.225,1.706,7.841,2.594c2.953,0.712,5.927,1.479,8.888,2.218
		C4615.437,212.01,4612.786,211.022,4610.125,209.973z M4629.347,213.792c-3.743-0.793-7.457-1.496-11.186-2.254
		c3.345,1.345,6.693,2.682,10.044,4.064c3.408,0.881,6.798,1.697,10.215,2.614C4635.395,216.766,4632.366,215.208,4629.347,213.792z
		 M4648.055,218.018c-4.174-0.956-8.352-1.917-12.507-2.825c3.574,1.703,7.159,3.489,10.739,5.236
		c4.177,1.146,8.367,2.343,12.557,3.532C4655.246,221.944,4651.65,219.988,4648.055,218.018z M4666.842,222.374
		c-4.574-1.114-9.117-2.137-13.676-3.202c3.945,2.187,7.891,4.28,11.836,6.522c4.29,1.249,8.578,2.496,12.883,3.808
		C4674.207,227.117,4670.525,224.708,4666.842,222.374z M302.992,817.304c-3.819-4.018-7.638-8.029-11.462-12.057
		c-2.566-1.32-5.135-2.67-7.704-4.003c3.903,3.878,7.809,7.76,11.705,11.609C298.023,814.366,300.505,815.803,302.992,817.304z
		 M317.231,832.277c-3.522-3.69-7.054-7.413-10.583-11.129c-2.303-1.384-4.606-2.729-6.914-4.123
		c3.661,3.638,7.328,7.294,10.975,10.89C312.891,829.414,315.052,830.788,317.231,832.277z M330.444,846.174
		c-2.895-3.017-5.814-6.104-8.725-9.176c-1.898-1.288-3.78-2.499-5.68-3.794c2.811,2.8,5.625,5.611,8.415,8.348
		C326.446,843.068,328.454,844.667,330.444,846.174z M341.614,857.876c-1.656-1.713-3.311-3.438-4.98-5.191
		c-1.329-1-2.658-2.001-3.987-3.007c1.487,1.482,2.979,2.987,4.451,4.419C338.603,855.347,340.111,856.63,341.614,857.876z
		 M4552.387,198.386c-1.245-0.134-2.498-0.29-3.74-0.416l1.837,0.342c1.185,0.17,2.355,0.291,3.542,0.468
		C4553.482,198.652,4552.934,198.514,4552.387,198.386z M4572.604,200.631c-2.861-0.309-5.725-0.628-8.588-0.953
		c2.966,0.731,5.912,1.381,8.883,2.138c2.743,0.45,5.491,0.91,8.228,1.345C4578.275,202.271,4575.448,201.497,4572.604,200.631z
		 M4592.946,203.282c-4.014-0.588-8.039-1.199-12.023-1.707c3.227,1.004,6.47,2.103,9.702,3.141
		c3.951,0.706,7.933,1.512,11.907,2.302C4599.339,205.782,4596.136,204.482,4592.946,203.282z M4612.042,205.993
		c-4.256-0.611-8.501-1.198-12.763-1.811c3.764,1.439,7.53,2.919,11.299,4.401c4.253,0.841,8.488,1.632,12.747,2.484
		C4619.559,209.324,4615.803,207.687,4612.042,205.993z M4632.239,209.335c-4.99-0.89-9.988-1.796-14.939-2.58
		c4.19,1.912,8.375,3.701,12.573,5.672c4.52,0.963,9.07,2.027,13.618,3.077C4639.741,213.468,4635.987,211.317,4632.239,209.335z
		 M4650.874,212.55c-4.729-0.837-9.433-1.605-14.16-2.444c3.961,2.12,7.928,4.375,11.894,6.553c4.719,1.092,9.41,2.083,14.137,3.194
		C4658.789,217.37,4654.83,214.979,4650.874,212.55z M315.663,824.858c-3.951-4.399-7.909-8.821-11.865-13.232
		c-2.793-1.414-5.598-2.934-8.393-4.366c4.038,4.254,8.075,8.505,12.11,12.739C310.23,821.628,312.949,823.244,315.663,824.858z
		 M329.915,840.751c-3.659-4.032-7.354-8.192-11.041-12.315c-2.569-1.518-5.138-3.058-7.704-4.593
		c3.811,4.016,7.628,8.046,11.426,12.019C325.04,837.521,327.472,839.103,329.915,840.751z M344.575,856.75
		c-3.564-3.902-7.099-7.717-10.657-11.599c-2.279-1.53-4.551-3.027-6.833-4.568c3.485,3.681,6.98,7.392,10.433,10.975
		C339.882,853.337,342.217,854.986,344.575,856.75z M358.856,872.299l-9.238-10.058c-2.079-1.549-4.145-3.027-6.23-4.585
		c3.058,3.142,6.085,6.204,9.144,9.353C354.632,868.736,356.761,870.584,358.856,872.299z M370.519,884.998
		c-1.756-1.902-3.519-3.826-5.277-5.743c-1.14-0.927-2.261-1.796-3.401-2.723c1.798,1.835,3.601,3.683,5.401,5.525
		C368.329,883.022,369.432,884.035,370.519,884.998z M4512.662,193.361c-0.808-0.021-1.624-0.052-2.432-0.073
		c1.361,0.09,2.74,0.229,4.106,0.33L4512.662,193.361z M4533.226,194.007c-2.887-0.139-5.732-0.179-8.612-0.292
		c2.958,0.484,5.906,0.929,8.873,1.44c2.74,0.24,5.459,0.407,8.204,0.658C4538.863,195.178,4536.05,194.619,4533.226,194.007z
		 M4554.643,195.303c-3.924-0.243-7.854-0.498-11.765-0.712c3.261,0.739,6.551,1.593,9.823,2.364
		c3.993,0.413,8.006,0.885,12.012,1.335C4561.356,197.296,4557.993,196.261,4554.643,195.303z M4574.738,196.703
		c-4.561-0.379-9.094-0.692-13.626-1.008c3.94,1.149,7.883,2.314,11.828,3.511c4.564,0.552,9.125,1.102,13.713,1.716
		C4582.671,199.449,4578.712,198.123,4574.738,196.703z M4595.61,198.606c-4.999-0.477-9.989-0.935-14.963-1.365
		c4.235,1.538,8.467,3.037,12.713,4.635c4.632,0.638,9.272,1.303,13.918,1.976C4603.39,202.12,4599.495,200.283,4595.61,198.606z
		 M4615.3,200.685c-5.085-0.596-10.16-1.157-15.213-1.673c4.132,1.807,8.27,3.716,12.404,5.58c5.114,0.786,10.252,1.642,15.397,2.52
		C4623.69,204.914,4619.498,202.824,4615.3,200.685z M4635.584,203.152c-5.366-0.679-10.72-1.32-16.068-1.952
		c4.409,2.269,8.812,4.413,13.223,6.751c4.938,0.851,9.87,1.684,14.818,2.559C4643.565,208.079,4639.578,205.524,4635.584,203.152z
		 M328.225,832.344c-4.222-4.902-8.486-9.926-12.742-14.929c-2.727-1.355-5.435-2.607-8.162-3.98
		c4.143,4.625,8.291,9.261,12.423,13.854C322.569,828.962,325.401,830.692,328.225,832.344z M343.349,849.725
		c-4.064-4.69-8.091-9.261-12.149-13.94c-2.743-1.6-5.501-3.298-8.246-4.916c3.961,4.411,7.92,8.821,11.849,13.149
		C337.653,845.93,340.503,847.831,343.349,849.725z M358.238,866.807c-3.764-4.324-7.528-8.631-11.294-12.955
		c-2.679-1.776-5.364-3.586-8.046-5.378c3.872,4.217,7.733,8.401,11.61,12.645C353.092,863.042,355.659,864.898,358.238,866.807z
		 M372.661,883.358c-3.353-3.834-6.727-7.716-10.096-11.588c-2.34-1.722-4.674-3.427-7.014-5.161
		c3.527,3.842,7.054,7.686,10.575,11.516C368.313,879.905,370.477,881.586,372.661,883.358z M386.443,899.13
		c-2.811-3.191-5.643-6.437-8.48-9.692c-1.827-1.472-3.635-2.898-5.464-4.377c3,3.277,6.006,6.568,8.983,9.785
		C383.145,896.309,384.782,897.674,386.443,899.13z M399.561,913.854c-1.956-2.207-3.903-4.388-5.843-6.56
		c-1.213-1.056-2.411-2.064-3.624-3.123c1.99,2.137,3.948,4.174,5.938,6.307C397.2,911.581,398.392,912.757,399.561,913.854z
		 M4470.736,191.268c-0.571,0.027-1.14,0.058-1.71,0.086c1.337,0.041,2.655,0.03,3.993,0.072
		C4472.255,191.368,4471.497,191.321,4470.736,191.268z M4493.253,190.479c-3.306,0.053-6.625,0.082-9.904,0.191
		c2.656,0.223,5.33,0.494,7.993,0.734c3.172,0.034,6.346,0.068,9.533,0.147C4498.336,191.188,4495.791,190.821,4493.253,190.479z
		 M4514.304,190.074c-3.966,0.061-7.912,0.158-11.871,0.229c3.461,0.496,6.946,1.07,10.418,1.601
		c3.99,0.115,7.982,0.234,11.978,0.356C4521.321,191.529,4517.805,190.769,4514.304,190.074z M4535.979,190.181
		c-4.93-0.08-9.87-0.179-14.761-0.17c4.088,0.841,8.167,1.66,12.266,2.551c4.966,0.23,9.978,0.58,14.984,0.908
		C4544.293,192.301,4540.146,191.297,4535.979,190.181z M4557.08,190.451c-5.048-0.122-10.039-0.12-15.065-0.201
		c4.303,1.174,8.612,2.379,12.926,3.611c4.759,0.31,9.475,0.527,14.247,0.875C4565.152,193.317,4561.106,191.816,4557.08,190.451z
		 M4578.07,191.336c-5.346-0.252-10.694-0.51-16-0.677c4.338,1.492,8.683,3.067,13.029,4.618c5.34,0.431,10.717,0.952,16.089,1.467
		C4586.811,194.873,4582.444,193.143,4578.07,191.336z M4599.005,192.367c-5.572-0.333-11.104-0.584-16.645-0.85
		c4.553,1.904,9.101,3.697,13.663,5.669c5.167,0.511,10.333,1.01,15.526,1.585C4607.367,196.659,4603.182,194.417,4599.005,192.367z
		 M4619.292,193.838c-5.527-0.429-11.049-0.852-16.54-1.201c4.335,2.15,8.675,4.433,13.015,6.646
		c5.509,0.63,11.042,1.316,16.579,2.019C4627.999,198.737,4623.643,196.333,4619.292,193.838z M340.982,839.813
		c-4.619-5.577-9.215-11.086-13.852-16.714c-2.822-1.386-5.638-2.727-8.457-4.128c4.485,5.261,8.967,10.519,13.415,15.68
		C335.055,836.381,338.021,838.102,340.982,839.813z M356.632,858.598c-4.361-5.242-8.707-10.44-13.071-15.69
		c-2.819-1.621-5.625-3.15-8.446-4.788c4.253,4.891,8.478,9.708,12.736,14.613C350.774,854.673,353.714,856.68,356.632,858.598z
		 M371.756,876.758c-3.953-4.733-7.92-9.505-11.886-14.274c-2.8-1.831-5.622-3.777-8.422-5.625
		c4.014,4.611,8.025,9.207,12.034,13.807C366.239,872.7,369,874.742,371.756,876.758z M386.443,894.389
		c-3.593-4.272-7.23-8.67-10.854-13.032c-2.59-1.888-5.19-3.826-7.783-5.727c3.698,4.251,7.399,8.519,11.073,12.702
		C381.405,890.371,383.919,892.366,386.443,894.389z M401.469,912.083c-3.395-4.018-6.772-7.98-10.154-11.955
		c-2.377-1.898-4.759-3.805-7.138-5.715c3.498,3.969,6.954,7.818,10.446,11.771C396.915,908.179,399.184,910.099,401.469,912.083z
		 M415.779,928.933l-8.301-9.777c-1.861-1.606-3.719-3.194-5.583-4.812c2.974,3.335,5.954,6.68,8.938,10.033
		C412.489,925.925,414.123,927.391,415.779,928.933z M428.052,943.379c-1.556-1.821-3.119-3.673-4.68-5.51
		c-0.966-0.896-1.924-1.764-2.893-2.661c1.674,1.882,3.358,3.779,5.03,5.648L428.052,943.379z M4426.408,192.439
		c-0.329,0.038-0.65,0.088-0.977,0.126c1.019-0.047,2.056-0.053,3.077-0.099l0.808-0.068
		C4428.345,192.404,4427.379,192.429,4426.408,192.439z M4450.97,189.899c-3.232,0.319-6.472,0.615-9.691,0.952
		c2.101,0.011,4.227,0.093,6.333,0.115c3.614-0.232,7.267-0.37,10.904-0.549C4456.008,190.265,4453.473,190.035,4450.97,189.899z
		 M4472.495,187.949c-4.253,0.32-8.475,0.708-12.702,1.085c3.661,0.226,7.341,0.502,11.015,0.764
		c4.042-0.178,8.043-0.442,12.104-0.581C4479.438,188.784,4475.961,188.35,4472.495,187.949z M4495.088,186.436
		c-4.922,0.317-9.841,0.635-14.742,0.987c4.351,0.535,8.686,1.005,13.055,1.593c4.814-0.12,9.651-0.195,14.486-0.276
		C4503.608,187.914,4499.357,187.208,4495.088,186.436z M4517.539,185.331c-5.448,0.195-10.894,0.398-16.29,0.692
		c4.406,0.824,8.822,1.705,13.242,2.588c5.208-0.04,10.452-0.007,15.703,0.049C4525.977,187.555,4521.748,186.381,4517.539,185.331z
		 M4538.855,184.566c-5.422,0.169-10.825,0.379-16.231,0.583c4.53,1.15,9.07,2.368,13.61,3.581
		c5.419,0.057,10.828,0.093,16.264,0.19C4547.941,187.397,4543.404,186.024,4538.855,184.566z M4561.078,184.33
		c-5.964,0-11.949-0.036-17.848,0.09c4.727,1.533,9.446,2.987,14.184,4.592c5.54,0.15,11.144,0.442,16.737,0.708
		C4569.795,187.939,4565.431,186.048,4561.078,184.33z M4581.757,184.229c-5.653-0.03-11.241,0.066-16.871,0.081
		c4.514,1.801,9.036,3.722,13.555,5.59c5.656,0.259,11.281,0.445,16.961,0.756C4590.854,188.44,4586.306,186.372,4581.757,184.229z
		 M4603.453,184.781c-6.035-0.187-12.083-0.396-18.058-0.46c4.682,2.225,9.362,4.325,14.047,6.626
		c5.614,0.336,11.284,0.789,16.948,1.23C4612.078,189.72,4607.767,187.17,4603.453,184.781z M353.29,846.735
		c-4.769-5.968-9.504-11.859-14.279-17.841c-2.948-1.423-5.898-2.876-8.846-4.317c4.785,5.792,9.512,11.427,14.281,17.184
		C347.402,843.458,350.339,845.055,353.29,846.735z M369.592,867.107c-4.63-5.777-9.267-11.572-13.908-17.379
		c-2.89-1.639-5.767-3.215-8.659-4.872c4.59,5.524,9.167,11.005,13.752,16.514C363.718,863.293,366.655,865.204,369.592,867.107z
		 M385.277,886.707c-4.282-5.313-8.615-10.756-12.928-16.153c-2.782-1.8-5.546-3.482-8.336-5.299
		c4.172,5.014,8.346,10.045,12.497,15C379.426,882.383,382.363,884.601,385.277,886.707z M400.795,905.877
		c-4.03-4.972-8.02-9.848-12.055-14.84c-2.79-2.009-5.609-4.156-8.401-6.183c3.977,4.756,7.943,9.478,11.899,14.174
		C395.089,901.306,397.947,903.62,400.795,905.877z M416.155,924.743l-11.062-13.585c-2.65-2.095-5.327-4.278-7.98-6.389
		c3.759,4.423,7.514,8.833,11.281,13.281C410.983,920.288,413.571,922.52,416.155,924.743z M430.913,942.86
		c-3.185-3.891-6.383-7.832-9.581-11.761c-2.303-1.975-4.624-3.992-6.935-5.977c3.295,3.882,6.593,7.772,9.881,11.632
		C426.494,938.806,428.697,940.819,430.913,942.86z M445.25,960.469c-2.645-3.221-5.325-6.528-7.999-9.824
		c-1.795-1.649-3.59-3.302-5.388-4.958c2.693,3.177,5.388,6.369,8.054,9.482C441.689,956.918,443.481,958.728,445.25,960.469z
		 M458.283,976.198c-1.261-1.53-2.514-3.037-3.769-4.547c-0.813-0.796-1.634-1.61-2.448-2.406c1.45,1.673,2.893,3.328,4.348,5.017
		C457.041,974.914,457.66,975.547,458.283,976.198z M4380.608,197.173c-0.65,0.121-1.311,0.222-1.961,0.348
		c0.853-0.106,1.716-0.187,2.572-0.292c0.574-0.09,1.142-0.188,1.716-0.277C4382.159,197.017,4381.388,197.105,4380.608,197.173z
		 M4405.797,192.714c-3.18,0.567-6.359,1.126-9.544,1.688c2.382-0.176,4.791-0.296,7.18-0.457c3.422-0.471,6.873-0.886,10.305-1.339
		C4411.098,192.66,4408.432,192.642,4405.797,192.714z M4429.127,189.071c-4.722,0.66-9.459,1.298-14.131,2.047
		c3.782-0.071,7.572-0.118,11.368-0.152c4.583-0.54,9.196-1.014,13.818-1.474C4436.491,189.328,4432.807,189.195,4429.127,189.071z
		 M4451.941,185.774c-4.954,0.651-9.833,1.434-14.76,2.131c4.606,0.19,9.18,0.278,13.805,0.526c4.706-0.455,9.38-0.968,14.103-1.385
		C4460.693,186.567,4456.324,186.196,4451.941,185.774z M4475.877,183.067c-5.567,0.604-11.134,1.203-16.658,1.883
		c4.445,0.458,8.92,1.01,13.381,1.528c5.454-0.429,10.959-0.758,16.458-1.1C4484.665,184.61,4480.256,183.778,4475.877,183.067z
		 M4498.259,180.797c-5.759,0.515-11.489,1.082-17.197,1.684c4.711,0.789,9.436,1.631,14.163,2.485
		c5.722-0.342,11.458-0.659,17.224-0.911C4507.706,182.894,4502.992,181.889,4498.259,180.797z M4521.176,178.928
		c-6.041,0.457-12.06,0.948-18.061,1.474c4.877,1.145,9.746,2.247,14.639,3.465c5.651-0.234,11.317-0.432,17-0.607
		C4530.23,181.828,4525.693,180.293,4521.176,178.928z M4543.156,177.578c-6.059,0.309-12.123,0.611-18.121,1.034
		c4.682,1.432,9.38,2.99,14.073,4.49c6.032-0.148,12.125-0.174,18.216-0.205C4552.597,181.049,4547.878,179.35,4543.156,177.578z
		 M4565.26,176.461c-6.159,0.273-12.283,0.606-18.414,0.929c4.856,1.842,9.705,3.568,14.563,5.488
		c5.762-0.039,11.515-0.093,17.298-0.088C4574.225,180.697,4569.74,178.486,4565.26,176.461z M4586.927,175.934
		c-6.204,0.091-12.431,0.135-18.556,0.37c4.587,2.091,9.183,4.323,13.773,6.487c6.159,0.045,12.41,0.281,18.637,0.475
		C4596.167,180.724,4591.543,178.398,4586.927,175.934z M365.629,853.676c-4.867-6.301-9.736-12.599-14.61-18.926
		c-3.008-1.428-6.03-2.961-9.038-4.408c4.877,6.112,9.725,12.149,14.595,18.242C359.596,850.296,362.61,851.983,365.629,853.676z
		 M382.121,875.043c-4.73-6.106-9.496-12.298-14.247-18.457c-2.966-1.659-5.935-3.331-8.904-5.008
		c4.767,5.961,9.533,11.924,14.284,17.851C376.217,871.344,379.16,873.147,382.121,875.043z M398.542,896.266
		c-4.585-5.885-9.228-11.913-13.852-17.897c-2.898-1.846-5.78-3.629-8.68-5.495c4.559,5.703,9.138,11.468,13.658,17.066
		C392.63,892.077,395.581,894.151,398.542,896.266z M415.003,917.253c-4.48-5.721-8.933-11.375-13.407-17.095
		c-2.832-2.016-5.635-3.896-8.467-5.931c4.309,5.313,8.58,10.519,12.894,15.836C409.007,912.423,412.023,914.914,415.003,917.253z
		 M430.729,937.304c-3.953-5.03-7.92-10.093-11.889-15.156c-2.824-2.21-5.69-4.579-8.522-6.807
		c3.982,4.894,7.962,9.782,11.936,14.66C425.073,932.414,427.913,934.908,430.729,937.304z M445.931,956.688
		c-3.516-4.453-7.07-9.006-10.618-13.536c-2.614-2.218-5.267-4.564-7.883-6.798c3.585,4.413,7.175,8.841,10.733,13.184
		C440.752,951.916,443.349,954.325,445.931,956.688z M461.729,976.628c-3.445-4.346-6.846-8.569-10.296-12.93
		c-2.303-2.097-4.627-4.267-6.93-6.375c3.674,4.471,7.299,8.822,10.962,13.264C457.565,972.643,459.631,974.582,461.729,976.628z
		 M476.042,994.572c-2.503-3.138-5.001-6.271-7.493-9.396c-1.642-1.593-3.266-3.132-4.911-4.731c2.519,3.03,5.043,6.075,7.564,9.122
		C472.815,991.235,474.428,992.91,476.042,994.572z M489.502,1011.456c-1.384-1.73-2.779-3.483-4.166-5.226
		c-0.734-0.753-1.477-1.531-2.211-2.289c1.579,1.906,3.169,3.834,4.746,5.723C488.412,1010.253,488.96,1010.867,489.502,1011.456z
		 M4333.443,205.631c-0.547,0.143-1.1,0.278-1.645,0.422c0.668-0.157,1.327-0.33,1.998-0.484L4333.443,205.631z M4358.065,199.32
		c-3.167,0.761-6.272,1.629-9.425,2.415c2.653-0.405,5.325-0.769,7.988-1.156c3.269-0.692,6.541-1.377,9.814-2.056
		C4363.658,198.803,4360.842,199.019,4358.065,199.32z M4383.259,193.67c-4.614,1.023-9.241,2.025-13.833,3.085
		c3.692-0.359,7.38-0.728,11.088-1.053c4.777-0.91,9.612-1.714,14.429-2.555C4391.037,193.292,4387.149,193.485,4383.259,193.67z
		 M4407.829,188.553c-5.456,1.05-10.896,2.127-16.297,3.272c4.732-0.191,9.436-0.454,14.192-0.584
		c5.09-0.857,10.191-1.698,15.324-2.478C4416.627,188.649,4412.232,188.614,4407.829,188.553z M4431.919,183.967
		c-5.559,1.018-11.073,2.104-16.605,3.161c4.58,0.097,9.199,0.313,13.797,0.468c5.496-0.813,10.999-1.614,16.516-2.391
		C4441.058,184.791,4436.47,184.321,4431.919,183.967z M4455.845,180.085c-6.146,0.935-12.302,1.853-18.379,2.903
		c4.835,0.4,9.681,0.844,14.531,1.311c6.154-0.795,12.392-1.435,18.614-2.101C4465.672,181.419,4460.767,180.79,4455.845,180.085z
		 M4479.459,176.519c-6.256,0.87-12.458,1.833-18.666,2.783c5.061,0.749,10.112,1.461,15.189,2.287
		c5.856-0.636,11.694-1.303,17.587-1.868C4488.869,178.659,4484.152,177.513,4479.459,176.519z M4502.5,173.617
		c-6.246,0.749-12.483,1.518-18.677,2.352c4.856,1.049,9.739,2.237,14.605,3.355c6.225-0.565,12.494-1.053,18.769-1.53
		C4512.288,176.332,4507.398,175.001,4502.5,173.617z M4525.73,171.058c-6.525,0.649-13.031,1.331-19.493,2.088
		c5.051,1.447,10.085,2.78,15.147,4.307c6.088-0.442,12.218-0.814,18.361-1.155C4535.076,174.56,4530.396,172.721,4525.73,171.058z
		 M4547.976,168.958c-6.304,0.553-12.581,1.155-18.845,1.779c4.764,1.715,9.541,3.582,14.31,5.374
		c6.283-0.346,12.576-0.674,18.896-0.954C4557.548,173.01,4552.761,171.027,4547.976,168.958z M4570.637,167.315
		c-6.562,0.414-13.128,0.812-19.616,1.354c4.858,2.117,9.712,4.126,14.571,6.325c6.18-0.245,12.447-0.339,18.698-0.455
		C4579.739,172.124,4575.19,169.655,4570.637,167.315z M378.004,860.638c-5.074-6.777-10.178-13.62-15.266-20.429
		c-2.958-1.38-5.906-2.667-8.87-4.069c4.972,6.447,9.941,12.885,14.902,19.303C371.845,857.164,374.933,858.94,378.004,860.638z
		 M394.739,883.034C389.904,876.6,385,870,380.128,863.48c-3.032-1.671-6.077-3.435-9.112-5.126
		c4.861,6.303,9.746,12.657,14.579,18.891C388.648,879.193,391.693,881.107,394.739,883.034z M411.568,905.39
		c-4.793-6.348-9.596-12.717-14.416-19.129c-2.995-1.886-5.99-3.785-8.991-5.692c4.793,6.186,9.588,12.375,14.347,18.477
		C405.538,901.202,408.544,903.253,411.568,905.39z M428.494,927.713c-4.695-6.193-9.386-12.37-14.092-18.584
		c-2.948-2.076-5.885-4.095-8.841-6.192c4.74,6.056,9.459,12.053,14.194,18.1C422.685,923.327,425.57,925.444,428.494,927.713z
		 M445.205,949.757c-4.461-5.863-8.957-11.811-13.444-17.737c-2.829-2.189-5.627-4.257-8.459-6.464
		c4.316,5.512,8.638,11.033,12.936,16.496C439.214,944.579,442.233,947.252,445.205,949.757z M460.992,970.553
		c-3.972-5.193-7.993-10.513-12.005-15.804c-2.721-2.287-5.435-4.545-8.164-6.849c3.851,4.922,7.714,9.877,11.523,14.694
		C455.217,965.208,458.128,967.956,460.992,970.553z M476.986,991.334c-3.627-4.721-7.235-9.405-10.849-14.097
		c-2.643-2.386-5.338-4.946-7.986-7.35c3.777,4.738,7.551,9.453,11.341,14.224C471.999,986.541,474.486,988.918,476.986,991.334z
		 M492.947,1012.073c-3.348-4.344-6.709-8.717-10.065-13.083c-2.192-2.108-4.385-4.217-6.577-6.338
		c3.335,4.184,6.675,8.382,10.002,12.547C488.512,1007.465,490.747,1009.819,492.947,1012.073z M507.036,1030.379
		c-2.232-2.882-4.488-5.823-6.735-8.752c-1.574-1.605-3.135-3.172-4.709-4.783c2.319,2.917,4.648,5.853,6.949,8.717
		C504.046,1027.189,505.531,1028.755,507.036,1030.379z M519.565,1046.568c-1.111-1.432-2.2-2.799-3.314-4.24l-1.534-1.643
		c1.319,1.63,2.619,3.219,3.935,4.853L519.565,1046.568z M4309.102,209.94c-3.622,1.11-7.228,2.249-10.815,3.409
		c2.885-0.673,5.785-1.314,8.68-1.966c3.156-0.903,6.283-1.857,9.452-2.739C4313.987,209.089,4311.529,209.48,4309.102,209.94z
		 M4334.698,202.205c-4.553,1.351-9.083,2.743-13.623,4.117c4.027-0.717,8.041-1.465,12.086-2.139
		c4.583-1.203,9.194-2.349,13.787-3.531C4342.852,201.14,4338.778,201.676,4334.698,202.205z M4361.076,194.947
		c-5.738,1.51-11.486,3.002-17.163,4.603c4.651-0.567,9.278-1.185,13.952-1.692c5.609-1.35,11.292-2.571,16.966-3.81
		C4370.23,194.303,4365.656,194.633,4361.076,194.947z M4386.422,188.41c-5.914,1.441-11.783,2.948-17.645,4.472
		c4.756-0.29,9.557-0.454,14.333-0.681c5.707-1.245,11.394-2.526,17.143-3.699C4395.64,188.47,4391.013,188.382,4386.422,188.41z
		 M4411.019,182.639c-6.177,1.417-12.333,2.863-18.474,4.336c5.054-0.001,10.12,0.03,15.2,0.103
		c6.18-1.218,12.386-2.389,18.605-3.54C4421.22,183.167,4416.127,182.936,4411.019,182.639z M4436.152,177.345
		c-6.717,1.332-13.444,2.651-20.082,4.111c5.271,0.33,10.533,0.616,15.829,1.027c6.293-1.113,12.663-2.108,19.029-3.104
		C4446.001,178.699,4441.063,177.956,4436.152,177.345z M4459.758,172.65c-6.388,1.192-12.697,2.513-19.042,3.776
		c5.038,0.65,10.112,1.449,15.168,2.173c6.338-0.992,12.636-2.054,19.016-2.976C4469.844,174.575,4464.801,173.621,4459.758,172.65z
		 M4484.194,168.521c-6.796,1.106-13.589,2.216-20.314,3.433c5.228,1.026,10.444,1.973,15.685,3.083
		c6.412-0.885,12.886-1.66,19.358-2.436C4494.011,171.227,4489.095,169.815,4484.194,168.521z M4507.482,164.872
		c-6.585,0.96-13.131,1.982-19.661,3.036c4.938,1.32,9.896,2.822,14.842,4.22c6.543-0.778,13.1-1.528,19.698-2.214
		C4517.397,168.162,4512.441,166.544,4507.482,164.872z M4531.044,161.645c-6.788,0.882-13.55,1.807-20.285,2.778
		c5.064,1.723,10.125,3.342,15.195,5.153c6.393-0.65,12.81-1.25,19.25-1.816C4540.485,165.732,4535.76,163.597,4531.044,161.645z
		 M4553.863,158.956c-6.69,0.726-13.378,1.463-19.995,2.304c4.792,1.998,9.585,4.136,14.384,6.213
		c6.601-0.559,13.263-1.015,19.932-1.455C4563.415,163.581,4558.635,161.315,4553.863,158.956z M390.33,867.492
		c-5.301-7.291-10.623-14.647-15.937-21.965c-2.995-1.376-5.985-2.705-8.983-4.099c5.206,6.97,10.431,13.978,15.629,20.919
		C384.134,864.053,387.24,865.806,390.33,867.492z M407.441,891.076c-5.022-6.877-10.128-13.96-15.197-20.944
		c-3.024-1.645-6.051-3.281-9.083-4.945c4.974,6.657,9.983,13.403,14.913,19.959C401.195,887.112,404.324,889.131,407.441,891.076z
		 M424.654,914.555c-4.988-6.803-9.931-13.499-14.931-20.333c-3.072-1.91-6.159-3.919-9.236-5.85
		c4.969,6.599,9.899,13.109,14.847,19.655C418.445,910.22,421.551,912.387,424.654,914.555z M441.81,937.893
		c-4.827-6.562-9.657-13.128-14.497-19.722c-3.045-2.12-6.093-4.265-9.141-6.405c4.848,6.408,9.686,12.783,14.521,19.157
		C435.743,933.284,438.767,935.553,441.81,937.893z M458.752,960.941c-4.606-6.237-9.262-12.595-13.902-18.914
		c-2.966-2.273-5.922-4.504-8.891-6.796c4.659,6.154,9.336,12.346,13.963,18.418C452.88,956.136,455.799,958.474,458.752,960.941z
		 M475.681,983.828c-4.474-6.028-8.944-12.053-13.439-18.139c-2.853-2.375-5.683-4.657-8.541-7.049
		c4.477,5.877,8.936,11.71,13.381,17.519C469.964,978.758,472.807,981.248,475.681,983.828z M492.21,1006.01
		c-4.114-5.529-8.22-11.027-12.334-16.552c-2.679-2.399-5.319-4.661-8.004-7.076c3.995,5.194,7.986,10.374,11.981,15.573
		C486.638,1000.635,489.433,1003.347,492.21,1006.01z M508.518,1027.892c-3.68-4.922-7.38-9.9-11.081-14.866
		c-2.553-2.44-5.132-4.962-7.693-7.417c3.853,5.012,7.709,10.038,11.539,14.995C503.712,1023.077,506.097,1025.431,508.518,1027.892
		z M523.599,1048.13c-2.995-3.992-6.035-8.087-9.065-12.165c-2.124-2.152-4.23-4.244-6.359-6.406
		c3.032,3.947,6.064,7.89,9.067,11.758C519.365,1043.595,521.483,1045.861,523.599,1048.13z M539.047,1068.576
		c-2.429-3.223-4.843-6.409-7.254-9.596c-1.519-1.621-3.05-3.271-4.572-4.896c2.521,3.217,5.051,6.455,7.585,9.702
		C536.215,1065.37,537.636,1066.997,539.047,1068.576z M552.928,1086.941l-3.029-4.007c-0.313-0.349-0.619-0.678-0.932-1.028
		c1.213,1.549,2.435,3.119,3.648,4.665L552.928,1086.941z M4257.399,225.119c-4.03,1.533-8.086,3.027-12.073,4.621
		c2.972-0.935,5.954-1.846,8.936-2.761c3.122-1.137,6.19-2.354,9.331-3.465C4261.534,224.063,4259.449,224.562,4257.399,225.119z
		 M4283.58,215.158c-4.646,1.686-9.205,3.497-13.816,5.23c4.327-1.123,8.636-2.287,12.987-3.364
		c4.435-1.495,8.856-3.014,13.31-4.478C4291.886,213.389,4287.73,214.27,4283.58,215.158z M4311.474,205.472
		c-5.665,1.953-11.333,3.901-16.971,5.892c4.764-0.968,9.515-1.963,14.308-2.872c5.677-1.778,11.415-3.47,17.14-5.177
		C4321.106,203.986,4316.292,204.742,4311.474,205.472z M4338.728,196.645c-6.467,1.989-12.939,3.965-19.319,6.075
		c4.988-0.721,10.031-1.32,15.047-1.974c6.198-1.796,12.45-3.51,18.716-5.199C4348.356,195.913,4343.518,196.217,4338.728,196.645z
		 M4364.103,188.868c-6.406,1.875-12.744,3.862-19.098,5.819c5.277-0.442,10.573-0.843,15.879-1.207
		c6.272-1.671,12.5-3.404,18.819-4.999C4374.481,188.547,4369.301,188.729,4364.103,188.868z M4390.334,181.581
		c-6.822,1.848-13.629,3.728-20.388,5.663c5.451-0.117,10.889-0.28,16.366-0.312c6.491-1.588,13.034-3.095,19.585-4.592
		C4400.701,182.066,4395.503,181.779,4390.334,181.581z M4415.664,175.076c-6.854,1.676-13.702,3.363-20.477,5.157
		c5.232,0.225,10.51,0.617,15.763,0.923c6.77-1.515,13.592-2.944,20.433-4.339C4426.134,176.19,4420.899,175.622,4415.664,175.076z
		 M4440.339,169.055c-6.877,1.593-13.655,3.329-20.477,4.997c5.425,0.588,10.839,1.13,16.282,1.806
		c6.572-1.332,13.113-2.709,19.727-3.972C4450.686,170.908,4445.506,169.951,4440.339,169.055z M4465.259,163.79
		c-7.012,1.435-14.029,2.857-20.956,4.415c5.167,0.913,10.354,1.957,15.531,2.953c6.888-1.264,13.866-2.385,20.835-3.519
		C4475.524,166.301,4470.392,165.046,4465.259,163.79z M4489.577,158.9c-7.043,1.338-14.026,2.762-21.006,4.192
		c5.246,1.301,10.48,2.548,15.737,3.934c6.683-1.091,13.357-2.194,20.095-3.201C4499.459,162.176,4494.511,160.47,4489.577,158.9z
		 M4513.401,154.66c-6.898,1.182-13.778,2.392-20.614,3.67c4.958,1.592,9.931,3.372,14.892,5.047
		c6.859-1.003,13.766-1.931,20.688-2.829C4523.377,158.5,4518.392,156.626,4513.401,154.66z M4537.176,150.825
		c-7.03,1.065-14.039,2.166-20.998,3.341c5.04,2,10.075,3.895,15.113,5.981c6.67-0.853,13.381-1.639,20.114-2.387
		C4546.662,155.432,4541.922,153.073,4537.176,150.825z M402.327,873.84c-5.396-7.627-10.815-15.316-16.218-22.97
		c-3.037-1.37-6.077-2.768-9.115-4.157c5.382,7.421,10.781,14.875,16.155,22.273C396.215,870.649,399.263,872.195,402.327,873.84z
		 M420.185,899.117c-5.296-7.45-10.681-15.111-16.026-22.681c-3.035-1.625-6.056-3.168-9.094-4.813
		c5.198,7.167,10.436,14.438,15.587,21.485C413.823,895.081,417.016,897.167,420.185,899.117z M437.791,923.755
		c-5.182-7.266-10.32-14.424-15.51-21.706c-3.101-1.903-6.212-3.849-9.317-5.775c5.117,6.986,10.175,13.831,15.287,20.799
		C431.426,919.284,434.619,921.564,437.791,923.755z M455.217,948.139c-4.961-6.934-9.936-13.895-14.916-20.873
		c-3.122-2.146-6.267-4.408-9.396-6.578c4.969,6.769,9.931,13.515,14.881,20.243C448.932,943.342,452.077,945.753,455.217,948.139z
		 M472.438,972.238c-4.753-6.618-9.575-13.392-14.371-20.106c-3.074-2.333-6.162-4.713-9.244-7.065
		c4.793,6.522,9.604,13.103,14.355,19.528C466.274,967.169,469.348,969.683,472.438,972.238z M489.786,996.297
		c-4.711-6.53-9.375-12.953-14.097-19.51c-3.006-2.478-6.009-4.947-9.02-7.445c4.735,6.392,9.42,12.66,14.142,19.021
		C483.814,991.053,486.785,993.628,489.786,996.297z M507.423,1020.672c-4.59-6.341-9.18-12.68-13.781-19.045
		c-2.885-2.559-5.748-5.058-8.638-7.636c4.477,6.014,8.944,12.005,13.413,18C501.406,1014.848,504.441,1017.839,507.423,1020.672z
		 M523.749,1043.234c-3.909-5.378-7.857-10.847-11.791-16.293c-2.764-2.618-5.548-5.303-8.317-7.939
		c3.969,5.332,7.943,10.684,11.878,15.944C518.272,1037.728,521.007,1040.47,523.749,1043.234z M540.371,1066.103
		c-3.743-5.134-7.485-10.258-11.252-15.449c-2.527-2.539-5.056-5.088-7.588-7.641c3.772,5.033,7.501,9.969,11.252,14.96
		C535.304,1060.66,537.854,1063.428,540.371,1066.103z M556.589,1088.224c-3.061-4.18-6.117-8.348-9.167-12.504
		c-2.119-2.243-4.277-4.594-6.398-6.849c3.282,4.339,6.572,8.697,9.862,13.05C552.802,1084.061,554.678,1086.094,556.589,1088.224z
		 M571.313,1108.308c-2.195-2.986-4.401-6.002-6.601-9.006c-1.395-1.549-2.774-3.055-4.174-4.609c2.287,3.024,4.58,6.07,6.856,9.067
		C568.704,1105.29,570.002,1106.782,571.313,1108.308z M584.038,1125.667c-0.719-0.976-1.453-1.979-2.174-2.965l-1.261-1.462
		c0.977,1.288,1.921,2.499,2.895,3.776L584.038,1125.667z M4202.579,245.563c-3.911,1.821-7.849,3.601-11.733,5.458
		c2.532-1.009,5.072-1.996,7.609-2.988c3.316-1.474,6.583-3.011,9.917-4.456C4206.451,244.254,4204.495,244.876,4202.579,245.563z
		 M4230.623,232.817c-5.135,2.233-10.233,4.521-15.315,6.826c4.53-1.561,9.043-3.15,13.602-4.66
		c4.406-1.828,8.757-3.734,13.192-5.519C4238.267,230.562,4234.439,231.678,4230.623,232.817z M4258.867,220.729
		c-5.68,2.357-11.273,4.827-16.911,7.237c5.022-1.44,10.031-2.905,15.087-4.281c5.717-2.218,11.452-4.407,17.195-6.577
		C4269.087,218.255,4263.989,219.514,4258.867,220.729z M4288.246,209.153c-6.62,2.549-13.237,5.105-19.791,7.745
		c4.912-1.119,9.873-2.131,14.816-3.187c6.604-2.4,13.305-4.659,19.993-6.938C4298.261,207.573,4293.22,208.288,4288.246,209.153z
		 M4315.342,199.089c-6.922,2.467-13.823,4.958-20.656,7.543c5.488-0.92,10.999-1.775,16.521-2.615
		c6.751-2.277,13.539-4.505,20.367-6.671C4326.142,197.868,4320.746,198.486,4315.342,199.089z M4342.026,189.664
		c-6.949,2.355-13.794,4.851-20.683,7.293c5.725-0.606,11.426-1.264,17.185-1.779c6.583-2.061,13.128-4.178,19.761-6.168
		C4352.854,189.187,4347.435,189.406,4342.026,189.664z M4369.08,181.007c-7.18,2.244-14.342,4.51-21.443,6.86
		c5.422-0.229,10.881-0.33,16.327-0.475c7.083-2.06,14.244-4.005,21.406-5.944C4379.932,181.264,4374.497,181.105,4369.08,181.007z
		 M4395.208,173.128c-7.322,2.117-14.619,4.275-21.856,6.513c5.617,0.126,11.233,0.242,16.876,0.457
		c7.033-1.888,14.105-3.718,21.214-5.492C4406.018,174.062,4400.614,173.588,4395.208,173.128z M4420.72,165.85
		c-7.188,1.975-14.297,4.063-21.432,6.114c5.438,0.484,10.896,1.047,16.355,1.619c6.993-1.73,13.981-3.47,21.025-5.127
		C4431.346,167.553,4426.029,166.666,4420.72,165.85z M4446.388,159.322c-7.438,1.823-14.897,3.622-22.238,5.587
		c5.393,0.846,10.791,1.713,16.197,2.648c7.162-1.628,14.437-3.086,21.693-4.573
		C4456.818,161.724,4451.602,160.499,4446.388,159.322z M4471.092,153.296c-7.199,1.671-14.318,3.453-21.459,5.211
		c5.232,1.197,10.478,2.498,15.721,3.78c7.043-1.453,14.06-2.944,21.162-4.315C4481.37,156.352,4476.232,154.833,4471.092,153.296z
		 M4496.099,147.852c-7.375,1.553-14.734,3.132-22.033,4.798c5.222,1.574,10.436,3.088,15.663,4.75
		c6.991-1.319,14.039-2.543,21.101-3.753C4505.918,151.727,4501.01,149.694,4496.099,147.852z M4520.134,142.981
		c-7.18,1.383-14.324,2.822-21.433,4.305c4.967,1.877,9.938,3.909,14.908,5.869c7.057-1.197,14.139-2.356,21.261-3.455
		C4529.959,147.387,4525.045,145.209,4520.134,142.981z M414.392,880.226c-5.485-7.949-11.01-15.988-16.518-23.989
		c-3.069-1.361-6.151-2.825-9.223-4.207c5.477,7.757,10.968,15.551,16.424,23.265C408.186,876.958,411.289,878.583,414.392,880.226z
		 M432.545,906.514c-5.43-7.832-10.915-15.795-16.39-23.729c-3.079-1.624-6.159-3.248-9.244-4.893
		c5.44,7.699,10.902,15.449,16.297,23.035C426.331,902.843,429.426,904.62,432.545,906.514z M450.914,932.898
		c-5.467-7.859-10.889-15.623-16.366-23.505c-3.087-1.87-6.154-3.642-9.246-5.532c5.338,7.486,10.623,14.854,15.95,22.319
		C444.465,928.391,447.705,930.709,450.914,932.898z M468.706,958.447c-5.169-7.408-10.36-14.866-15.55-22.328
		c-3.127-2.127-6.262-4.28-9.396-6.428c5.096,7.138,10.189,14.269,15.263,21.357C462.242,953.49,465.49,956.029,468.706,958.447z
		 M486.235,983.627c-4.901-7.001-9.886-14.194-14.834-21.306c-3.161-2.37-6.362-4.887-9.528-7.282
		c4.927,6.903,9.891,13.881,14.771,20.672C479.84,978.346,483.045,981.015,486.235,983.627z M503.994,1008.857
		c-4.901-6.973-9.749-13.822-14.65-20.797c-3.122-2.549-6.269-5.188-9.399-7.761c4.903,6.796,9.749,13.459,14.652,20.252
		C497.732,1003.333,500.861,1006.097,503.994,1008.857z M521.875,1034.25c-4.759-6.75-9.525-13.518-14.3-20.303
		c-3.035-2.672-6.08-5.374-9.123-8.066c4.835,6.692,9.667,13.37,14.487,20.025C515.938,1028.745,518.885,1031.433,521.875,1034.25z
		 M539.081,1058.681c-4.364-6.171-8.786-12.468-13.189-18.729c-2.874-2.699-5.717-5.309-8.596-8.027
		c4.285,5.933,8.586,11.898,12.831,17.737C533.109,1052.656,536.109,1055.707,539.081,1058.681z M556.318,1082.969
		c-4.138-5.823-8.22-11.53-12.365-17.371c-2.806-2.796-5.646-5.706-8.457-8.52c4.335,5.938,8.599,11.713,12.928,17.642
		C551.075,1077.524,553.673,1080.18,556.318,1082.969z M572.952,1106.307l-10.907-15.299c-2.406-2.528-4.78-4.975-7.188-7.517
		l10.878,14.84C568.146,1101.011,570.544,1103.643,572.952,1106.307z M589.008,1128.837c-2.99-4.18-6.001-8.415-9.007-12.638
		c-2.05-2.26-4.103-4.532-6.156-6.803c3.027,4.134,6.056,8.284,9.059,12.36C584.938,1124.114,586.978,1126.491,589.008,1128.837z
		 M603.992,1149.834c-2.035-2.838-4.082-5.7-6.138-8.584c-1.403-1.616-2.824-3.286-4.23-4.908c2.327,3.153,4.603,6.184,6.927,9.322
		C601.691,1147.043,602.849,1148.458,603.992,1149.834z M4143.954,272.336c-3.824,2.114-7.683,4.187-11.486,6.326
		c2.253-1.099,4.527-2.166,6.788-3.251c3.587-1.905,7.138-3.851,10.75-5.72C4147.991,270.577,4145.959,271.439,4143.954,272.336z
		 M4174.195,256.174c-5.577,2.861-11.146,5.736-16.658,8.683c4.614-1.994,9.228-3.991,13.876-5.933
		c4.574-2.273,9.083-4.635,13.694-6.86C4181.468,253.43,4177.817,254.774,4174.195,256.174z M4203.8,241.181
		c-6.014,2.938-11.936,5.992-17.892,9.005c5.382-2.012,10.741-4.072,16.168-6.013c5.793-2.699,11.549-5.449,17.39-8.086
		C4214.208,237.712,4209.022,239.484,4203.8,241.181z M4234.224,226.8c-6.662,3.092-13.281,6.245-19.893,9.402
		c5.259-1.649,10.56-3.219,15.855-4.798c6.669-2.926,13.399-5.767,20.127-8.612C4244.941,224.11,4239.559,225.407,4234.224,226.8z
		 M4263.597,213.836c-7.317,3.128-14.639,6.245-21.856,9.503c5.543-1.406,11.142-2.707,16.724-4.032
		c7.254-2.984,14.61-5.828,21.967-8.671C4274.802,211.656,4269.193,212.729,4263.597,213.836z M4292.015,201.949
		c-7.467,3.008-14.884,6.076-22.254,9.206c6.048-1.16,12.068-2.389,18.161-3.45c7.014-2.691,14.052-5.359,21.143-7.942
		C4303.361,200.434,4297.687,201.192,4292.015,201.949z M4319.775,190.91c-7.394,2.836-14.668,5.821-21.991,8.745
		c5.741-0.735,11.515-1.381,17.292-2.025c7.172-2.578,14.339-5.168,21.572-7.664C4331.019,190.262,4325.375,190.523,4319.775,190.91
		z M4347.493,180.878c-7.672,2.713-15.339,5.434-22.915,8.277c5.732-0.369,11.479-0.687,17.24-0.963
		c7.543-2.533,15.195-4.914,22.838-7.305C4358.913,180.808,4353.212,180.864,4347.493,180.878z M4374.681,171.507
		c-7.725,2.562-15.402,5.185-23.03,7.869c5.749,0.011,11.505,0.04,17.282,0.145c7.335-2.291,14.694-4.544,22.106-6.723
		C4385.583,172.357,4380.116,171.862,4374.681,171.507z M4400.78,163.01c-7.517,2.373-14.963,4.843-22.419,7.3
		c5.572,0.384,11.165,0.848,16.763,1.324c7.383-2.145,14.771-4.282,22.222-6.335C4411.811,164.462,4406.3,163.753,4400.78,163.01z
		 M4427.232,155.186c-7.754,2.211-15.529,4.397-23.172,6.755c5.538,0.763,11.078,1.548,16.632,2.4
		c7.425-2.002,14.958-3.852,22.482-5.715C4437.857,157.445,4432.541,156.28,4427.232,155.186z M4452.715,147.93
		c-7.551,2.054-15.003,4.24-22.485,6.385c5.393,1.128,10.789,2.28,16.192,3.499c7.265-1.806,14.492-3.664,21.817-5.382
		C4463.062,150.9,4457.884,149.374,4452.715,147.93z M4478.093,141.426c-7.517,1.873-15.021,3.762-22.446,5.752
		c5.183,1.465,10.375,3.054,15.566,4.605c7.388-1.698,14.855-3.285,22.333-4.859
		C4488.392,145.007,4483.244,143.257,4478.093,141.426z M4503.081,135.364c-7.514,1.746-14.979,3.56-22.419,5.405
		c5.204,1.863,10.404,3.61,15.608,5.562c7.154-1.497,14.315-2.984,21.53-4.393C4512.894,139.723,4507.99,137.496,4503.081,135.364z
		 M426.52,886.642c-5.659-8.385-11.365-16.884-17.053-25.341c-3.037-1.324-6.067-2.588-9.107-3.93
		c5.577,8.099,11.168,16.239,16.716,24.274C420.224,883.304,423.378,885.005,426.52,886.642z M444.971,913.951
		c-5.564-8.211-11.152-16.48-16.75-24.782c-3.122-1.62-6.256-3.32-9.38-4.964c5.561,8.057,11.12,16.106,16.64,24.068
		C438.649,910.191,441.804,912.054,444.971,913.951z M463.563,941.304c-5.567-8.193-11.091-16.301-16.671-24.522
		c-3.135-1.875-6.267-3.736-9.407-5.633c5.556,8.003,11.068,15.89,16.613,23.865C457.267,937.166,460.4,939.174,463.563,941.304z
		 M482.077,968.543c-5.438-7.98-10.907-16.035-16.371-24.083c-3.127-2.1-6.233-4.103-9.365-6.226
		c5.346,7.687,10.697,15.381,16.016,23.007C475.597,963.669,478.845,966.139,482.077,968.543z M500.177,995.137
		c-5.193-7.599-10.457-15.356-15.697-23.058c-3.145-2.333-6.275-4.612-9.428-6.965c5.093,7.308,10.207,14.667,15.253,21.873
		C493.584,989.664,496.906,992.484,500.177,995.137z M518.277,1021.487c-5.059-7.378-10.078-14.659-15.137-22.039
		c-3.214-2.597-6.48-5.385-9.699-8.005c5.046,7.173,10.046,14.255,15.092,21.431
		C511.776,1015.724,515.043,1018.659,518.277,1021.487z M536.294,1047.714c-4.875-7.084-9.765-14.207-14.658-21.337
		c-3.156-2.753-6.356-5.639-9.52-8.416c4.93,7.005,9.854,14.004,14.76,20.959C530.022,1041.876,533.154,1044.78,536.294,1047.714z
		 M554.299,1073.93c-4.717-6.833-9.507-13.834-14.271-20.776c-3.045-2.837-6.088-5.677-9.138-8.535
		c4.701,6.682,9.423,13.421,14.076,19.991C548.075,1067.708,551.199,1070.854,554.299,1073.93z M571.765,1099.12
		c-4.432-6.398-8.809-12.671-13.236-19.06c-2.858-2.829-5.68-5.539-8.544-8.386c4.361,6.129,8.694,12.188,13.068,18.339
		C565.964,1093.074,568.857,1096.077,571.765,1099.12z M589.318,1124.397l-12.365-17.806c-2.724-2.843-5.448-5.686-8.178-8.547
		c4.088,5.736,8.175,11.478,12.252,17.189C583.783,1118.278,586.562,1121.37,589.318,1124.397z M606.463,1149.09
		c-3.601-5.169-7.246-10.429-10.883-15.672c-2.487-2.727-5.017-5.56-7.512-8.303c3.616,5.087,7.246,10.193,10.828,15.195
		C601.404,1143.2,603.96,1146.213,606.463,1149.09z M622.605,1172.207c-3.035-4.342-6.025-8.57-9.07-12.932
		c-1.885-2.156-3.73-4.217-5.617-6.384c3.145,4.367,6.259,8.659,9.407,13.04C619.099,1168.055,620.836,1170.089,622.605,1172.207z
		 M638.068,1194.222c-2.079-2.962-4.153-5.919-6.222-8.862c-1.174-1.395-2.335-2.766-3.508-4.165
		c2.216,3.065,4.438,6.151,6.651,9.219C636.023,1191.693,637.039,1192.943,638.068,1194.222z M650.139,1211.408l-0.129-0.185
		l-0.032-0.039L650.139,1211.408z M4080.175,307.277c-3.337,2.15-6.719,4.253-10.044,6.422c2.187-1.272,4.411-2.491,6.606-3.751
		c3.295-2.048,6.52-4.182,9.833-6.204C4084.423,304.898,4082.315,306.112,4080.175,307.277z M4114.207,286.113
		c-5.954,3.562-11.91,7.12-17.784,10.774c4.521-2.376,9.08-4.7,13.639-7.027c4.898-2.866,9.735-5.815,14.679-8.625
		C4121.237,282.872,4117.694,284.445,4114.207,286.113z M4145.583,267.67c-6.47,3.675-12.871,7.435-19.264,11.204
		c5.688-2.646,11.344-5.345,17.084-7.91c5.729-3.147,11.396-6.376,17.179-9.455C4155.558,263.518,4150.573,265.596,4145.583,267.67z
		 M4176.812,250.279c-6.838,3.688-13.542,7.537-20.309,11.311c5.704-2.302,11.42-4.577,17.171-6.798
		c6.814-3.527,13.642-7.04,20.519-10.488C4188.377,246.249,4182.586,248.249,4176.812,250.279z M4208.735,233.772
		c-7.417,3.776-14.81,7.58-22.151,11.45c5.543-1.892,11.167-3.632,16.755-5.446c7.517-3.668,15.137-7.209,22.751-10.752
		C4220.295,230.584,4214.492,232.124,4208.735,233.772z M4238.909,219.04c-7.996,3.772-15.995,7.545-23.867,11.47
		c6.235-1.742,12.468-3.481,18.75-5.124c7.696-3.525,15.479-6.931,23.286-10.312C4250.987,216.318,4244.957,217.7,4238.909,219.04z
		 M4268.674,205.243c-8.001,3.582-15.934,7.249-23.83,10.962c6.114-1.318,12.247-2.596,18.405-3.814
		c7.53-3.24,15.068-6.474,22.691-9.6C4280.179,203.595,4274.401,204.35,4268.674,205.243z M4296.976,192.811
		c-7.767,3.317-15.439,6.75-23.132,10.162c5.932-0.895,11.904-1.68,17.871-2.476c7.73-3.126,15.476-6.229,23.277-9.257
		C4308.962,191.683,4302.975,192.269,4296.976,192.811z M4325.976,181.068c-8.225,3.24-16.458,6.474-24.564,9.868
		c6.03-0.519,12.052-1.081,18.116-1.498c7.791-2.956,15.713-5.738,23.623-8.541C4337.42,180.935,4331.679,180.938,4325.976,181.068z
		 M4353.507,170.428c-7.901,2.948-15.742,5.972-23.546,9.041c5.759-0.108,11.563-0.06,17.351-0.073
		c7.788-2.763,15.597-5.507,23.478-8.153C4365.009,170.888,4359.263,170.686,4353.507,170.428z M4380.948,160.416
		c-7.996,2.831-15.916,5.763-23.836,8.695c5.817,0.283,11.623,0.517,17.463,0.899c7.588-2.522,15.195-5.018,22.856-7.439
		C4391.937,161.85,4386.428,161.046,4380.948,160.416z M4407.805,151.407c-7.978,2.592-15.971,5.166-23.833,7.905
		c5.567,0.656,11.154,1.442,16.74,2.192c7.772-2.415,15.655-4.69,23.535-6.963C4418.757,153.425,4413.282,152.43,4407.805,151.407z
		 M4433.996,142.913c-7.807,2.429-15.502,5.001-23.238,7.522c5.49,1.039,10.986,2.102,16.489,3.235
		c7.53-2.175,15.013-4.417,22.612-6.504C4444.569,145.703,4439.281,144.289,4433.996,142.913z M4460.393,135.164
		c-7.925,2.268-15.837,4.547-23.656,6.945c5.348,1.407,10.702,2.809,16.058,4.305c7.554-2.038,15.205-3.948,22.859-5.854
		C4470.565,138.765,4465.475,136.873,4460.393,135.164z M4485.731,128.052c-7.667,2.069-15.271,4.22-22.864,6.385
		c5.117,1.73,10.236,3.646,15.355,5.463c7.527-1.869,15.055-3.743,22.648-5.523C4495.828,132.201,4490.777,130.141,4485.731,128.052
		z M438.688,893.081c-5.867-8.885-11.797-17.908-17.708-26.887c-3.051-1.305-6.09-2.559-9.141-3.884
		c5.775,8.587,11.57,17.22,17.308,25.723C432.321,889.683,435.516,891.455,438.688,893.081z M457.444,921.416
		c-5.717-8.622-11.431-17.243-17.182-25.946c-3.132-1.601-6.277-3.286-9.415-4.91c5.683,8.416,11.336,16.766,16.984,25.103
		C451.035,917.579,454.243,919.526,457.444,921.416z M476.284,949.759c-5.667-8.529-11.302-16.99-16.987-25.553
		c-3.174-1.873-6.362-3.817-9.541-5.712c5.651,8.334,11.26,16.564,16.898,24.864C469.87,945.518,473.073,947.621,476.284,949.759z
		 M495.045,977.983c-5.54-8.315-11.126-16.731-16.7-25.122c-3.182-2.113-6.359-4.211-9.546-6.347
		c5.551,8.175,11.112,16.372,16.629,24.468C488.646,973.37,491.831,975.617,495.045,977.983z M513.785,1006.101
		c-5.451-8.156-10.947-16.411-16.44-24.657c-3.179-2.333-6.33-4.572-9.515-6.926c5.438,7.98,10.873,15.963,16.274,23.858
		C507.344,1000.995,510.553,1003.508,513.785,1006.101z M532.622,1034.168c-5.417-8.078-10.789-16.063-16.213-24.158
		c-3.153-2.524-6.256-4.882-9.417-7.427c5.219,7.61,10.394,15.125,15.608,22.724
		C525.923,1028.205,529.306,1031.297,532.622,1034.168z M550.814,1061.277c-5.051-7.514-10.131-15.088-15.208-22.66
		c-3.206-2.771-6.438-5.63-9.652-8.421c5.032,7.329,10.062,14.661,15.063,21.931
		C544.279,1055.167,547.561,1058.261,550.814,1061.277z M568.92,1088.249c-4.822-7.15-9.725-14.484-14.602-21.751
		c-3.174-2.935-6.383-5.974-9.565-8.931c4.935,7.188,9.891,14.409,14.781,21.49C562.68,1082.167,565.783,1085.163,568.92,1088.249z
		 M587.297,1115.357c-4.809-7.105-9.573-14.118-14.371-21.201c-3.032-2.974-6.046-5.895-9.08-8.891
		c4.709,6.791,9.399,13.525,14.121,20.337C581.072,1108.847,584.196,1112.137,587.297,1115.357z M605.452,1142.144
		c-4.456-6.566-8.928-13.165-13.4-19.765c-2.953-3.061-5.943-6.23-8.904-9.311c4.493,6.476,8.988,12.957,13.463,19.391
		C599.557,1135.687,602.512,1138.937,605.452,1142.144z M622.621,1167.471c-3.94-5.788-7.933-11.693-11.912-17.571
		c-2.664-2.898-5.282-5.674-7.951-8.591c3.948,5.694,7.904,11.414,11.805,17.002
		C617.262,1161.404,619.926,1164.395,622.621,1167.471z M639.879,1192.74c-3.659-5.356-7.259-10.582-10.915-15.932
		c-2.356-2.683-4.698-5.33-7.059-8.025c3.664,5.216,7.322,10.417,11.004,15.674C635.239,1187.231,637.552,1189.976,639.879,1192.74z
		 M656.619,1217.183l-8.749-12.774c-1.908-2.262-3.824-4.55-5.738-6.822c2.974,4.234,5.956,8.49,8.928,12.711
		C652.91,1212.594,654.768,1214.897,656.619,1217.183z M672.069,1239.739c-1.811-2.637-3.643-5.318-5.464-7.979
		c-1.203-1.481-2.421-3.007-3.63-4.489c1.892,2.693,3.798,5.417,5.675,8.075C669.784,1236.805,670.934,1238.284,672.069,1239.739z
		 M4011.895,351.36c-4.037,2.974-8.135,5.883-12.134,8.903c3.759-2.594,7.507-5.2,11.297-7.759c2.529-1.824,5.027-3.682,7.57-5.49
		C4016.38,348.457,4014.135,349.903,4011.895,351.36z M4048.33,325.173c-5.488,3.805-10.968,7.618-16.39,11.499
		c4.227-2.643,8.544-5.157,12.8-7.757c5.317-3.618,10.565-7.311,15.937-10.866C4056.539,320.393,4052.439,322.787,4048.33,325.173z
		 M4083.462,301.375c-6.872,4.503-13.673,9.088-20.453,13.696c5.472-3.08,10.981-6.108,16.503-9.115
		c6.193-3.966,12.328-8.001,18.59-11.884C4093.214,296.496,4088.31,298.891,4083.462,301.375z M4116.502,280.199
		c-7.309,4.542-14.495,9.228-21.714,13.874c6.261-3.127,12.499-6.289,18.827-9.316c7.038-4.241,14.052-8.508,21.172-12.652
		C4128.648,274.724,4122.59,277.486,4116.502,280.199z M4150.092,259.976c-7.828,4.604-15.563,9.319-23.299,14.03
		c6.038-2.623,12.123-5.166,18.216-7.698c7.73-4.398,15.534-8.708,23.354-13.001
		C4162.259,255.506,4156.145,257.683,4150.092,259.976z M4182.489,241.685c-8.264,4.554-16.513,9.128-24.656,13.823
		c6.114-2.267,12.281-4.44,18.445-6.611c8.304-4.454,16.75-8.732,25.191-13.02C4195.109,237.745,4188.798,239.715,4182.489,241.685z
		 M4214.044,224.818c-8.546,4.423-17.063,8.874-25.473,13.458c6.551-2.004,13.097-4.023,19.7-5.914
		c8.033-4.052,16.145-8.009,24.294-11.916C4226.373,221.856,4220.195,223.308,4214.044,224.818z M4244.468,209.36
		c-8.296,4.078-16.498,8.263-24.681,12.474c6.207-1.488,12.471-2.842,18.722-4.225c8.043-3.826,16.084-7.657,24.23-11.357
		C4256.63,207.24,4250.537,208.27,4244.468,209.36z M4274.125,195.121c-8.325,3.902-16.571,7.899-24.807,11.909
		c6.325-1.104,12.636-2.233,19.003-3.229c8.001-3.583,16.037-7.124,24.127-10.595
		C4286.322,193.788,4280.216,194.436,4274.125,195.121z M4303.83,181.858c-8.562,3.712-17.142,7.402-25.565,11.279
		c6.12-0.662,12.265-1.232,18.417-1.79c8.249-3.481,16.624-6.802,25.001-10.124C4315.719,181.384,4309.768,181.597,4303.83,181.858z
		 M4332.417,169.648c-8.367,3.458-16.661,7.007-24.92,10.593c6.072-0.246,12.144-0.507,18.245-0.648
		c7.967-3.156,15.942-6.305,24.001-9.342C4343.958,170.011,4338.181,169.791,4332.417,169.648z M4360.374,158.374
		c-8.193,3.215-16.308,6.524-24.412,9.845c5.78,0.162,11.589,0.453,17.39,0.714c8.054-3.005,16.142-5.967,24.288-8.858
		C4371.87,159.43,4366.125,158.92,4360.374,158.374z M4388.431,147.875c-8.398,3.051-16.808,6.095-25.08,9.299
		c5.833,0.568,11.649,1.057,17.5,1.729c7.917-2.772,15.937-5.409,23.962-8.042C4399.349,149.859,4393.882,148.788,4388.431,147.875z
		 M4415.146,138.198c-8.054,2.807-15.982,5.765-23.957,8.667c5.52,0.935,11.049,1.992,16.579,3.025
		c7.841-2.571,15.621-5.218,23.536-7.696C4425.913,140.807,4420.528,139.494,4415.146,138.198z M4442.053,129.32
		c-8.104,2.614-16.2,5.236-24.193,7.983c5.39,1.312,10.786,2.683,16.184,4.084c7.888-2.43,15.887-4.72,23.883-7.009
		C4452.636,132.615,4447.346,130.994,4442.053,129.32z M4468.339,120.978c-8.012,2.455-15.95,4.997-23.88,7.549
		c5.335,1.702,10.673,3.311,16.013,5.107c7.651-2.189,15.297-4.393,23.017-6.494C4478.44,125.06,4473.39,122.971,4468.339,120.978z
		 M450.522,898.951c-5.954-9.193-11.976-18.542-17.977-27.842c-3.074-1.295-6.151-2.608-9.228-3.922
		c5.967,9.064,11.952,18.176,17.871,27.135C444.307,895.915,447.405,897.377,450.522,898.951z M469.97,928.915
		c-5.972-9.192-11.915-18.33-17.919-27.599c-3.1-1.56-6.185-3.023-9.288-4.605c5.856,8.858,11.66,17.596,17.482,26.383
		C463.482,925.003,466.737,927.031,469.97,928.915z M489.078,958.261c-5.775-8.87-11.526-17.685-17.316-26.594
		c-3.208-1.867-6.451-3.893-9.665-5.785c5.756,8.673,11.468,17.248,17.203,25.882C482.558,953.927,485.825,956.122,489.078,958.261z
		 M508.107,987.492c-5.651-8.657-11.357-17.437-17.045-26.178c-3.224-2.116-6.469-4.309-9.699-6.449
		c5.654,8.514,11.326,17.063,16.942,25.492C501.577,982.758,504.841,985.113,508.107,987.492z M527.15,1016.64
		c-5.59-8.541-11.205-17.132-16.834-25.753c-3.235-2.35-6.469-4.699-9.712-7.071c5.606,8.41,11.194,16.779,16.766,25.112
		C520.641,1011.549,523.884,1014.045,527.15,1016.64z M546.272,1045.758c-5.546-8.453-11.054-16.822-16.616-25.3
		c-3.224-2.557-6.43-5.043-9.662-7.622c5.54,8.275,11.041,16.451,16.574,24.699C539.823,1040.349,543.024,1042.971,546.272,1045.758
		z M565.406,1074.887c-5.419-8.232-10.878-16.552-16.329-24.861c-3.201-2.737-6.359-5.338-9.567-8.1
		c5.28,7.873,10.568,15.762,15.813,23.563C558.671,1068.58,562.066,1071.822,565.406,1074.887z M583.741,1102.765
		c-5.04-7.638-10.138-15.406-15.226-23.142c-3.222-2.953-6.459-5.938-9.688-8.915c5.053,7.517,10.104,15.033,15.118,22.463
		C577.214,1096.378,580.48,1099.583,583.741,1102.765z M602.76,1131.462c-5.103-7.714-10.17-15.337-15.271-23.043
		c-3.172-3.088-6.364-6.231-9.544-9.344c5.056,7.466,10.083,14.865,15.139,22.334
		C596.303,1124.747,599.546,1128.149,602.76,1131.462z M620.902,1158.833c-4.656-7.015-9.333-14.076-14.013-21.139
		c-3.022-3.11-6.017-6.135-9.049-9.269c4.643,6.854,9.286,13.715,13.902,20.512C614.809,1152.277,617.844,1155.517,620.902,1158.833
		z M638.861,1185.929c-4.332-6.51-8.733-13.171-13.118-19.794c-2.919-3.152-5.825-6.275-8.749-9.448
		c4.356,6.428,8.717,12.868,13.028,19.195C632.97,1179.238,635.921,1182.594,638.861,1185.929z M657.111,1213.225
		c-4.148-6.21-8.254-12.332-12.386-18.515c-2.706-3.053-5.432-6.173-8.143-9.247c4.124,6.013,8.241,12.022,12.378,18.073
		C651.671,1206.749,654.408,1210.032,657.111,1213.225z M674.888,1239.792l-10.694-15.982c-2.4-2.826-4.846-5.778-7.251-8.619
		c3.582,5.234,7.172,10.484,10.741,15.687C670.071,1233.818,672.505,1236.868,674.888,1239.792z M691.501,1264.621
		c-2.824-4.209-5.685-8.492-8.538-12.761c-1.821-2.229-3.603-4.364-5.427-6.6c2.829,4.139,5.672,8.301,8.467,12.362
		C687.837,1259.964,689.672,1262.289,691.501,1264.621z M707.117,1287.838c-1.942-2.886-3.84-5.667-5.785-8.56
		c-0.9-1.139-1.784-2.25-2.685-3.391c2.124,3.064,4.256,6.144,6.396,9.24C705.737,1286.042,706.419,1286.924,707.117,1287.838z
		 M4509.003,120.53c-4.872-2.399-9.728-4.912-14.605-7.229c-7.965,2.282-15.895,4.606-23.77,7.002
		c5.093,2.019,10.184,4.103,15.271,6.21C4493.548,124.453,4501.265,122.481,4509.003,120.53z M4525.717,128.85
		c-4.909-2.518-9.828-4.905-14.745-7.338c-7.651,1.919-15.263,3.886-22.83,5.915c5.053,2.106,10.107,4.219,15.158,6.41
		C4510.725,132.113,4518.21,130.464,4525.717,128.85z M4542.043,137.459c-4.759-2.536-9.509-5.134-14.273-7.59
		c-7.462,1.596-14.879,3.253-22.259,4.955c4.953,2.162,9.907,4.393,14.86,6.638C4527.554,140.074,4534.781,138.744,4542.043,137.459
		z M4558.338,146.28c-4.748-2.627-9.51-5.177-14.268-7.723c-7.165,1.257-14.276,2.588-21.37,3.948
		c4.927,2.247,9.849,4.486,14.771,6.815C4544.396,148.264,4551.347,147.239,4558.338,146.28z M4574.409,155.34
		c-4.646-2.666-9.293-5.324-13.947-7.91c-6.938,0.941-13.813,1.976-20.688,3.014c4.803,2.288,9.604,4.654,14.405,7.023
		C4560.901,156.726,4567.626,155.987,4574.409,155.34z M4590.246,164.623c-4.574-2.717-9.151-5.409-13.734-8.05
		c-6.669,0.628-13.263,1.375-19.877,2.092c4.791,2.377,9.581,4.719,14.368,7.175C4577.407,165.416,4583.79,164.959,4590.246,164.623
		z M4606.09,174.11c-4.532-2.785-9.075-5.471-13.613-8.178c-6.388,0.323-12.686,0.796-19.027,1.205
		c4.627,2.389,9.249,4.876,13.874,7.342C4593.578,174.353,4599.79,174.151,4606.09,174.11z M4621.427,183.805
		c-4.375-2.774-8.744-5.592-13.124-8.295c-6.164,0.031-12.223,0.254-18.348,0.362c4.648,2.495,9.299,4.902,13.944,7.473
		C4609.746,183.512,4615.539,183.566,4621.427,183.805z M4637.264,193.831c-4.435-2.909-8.889-5.606-13.329-8.44
		c-5.833-0.247-11.594-0.357-17.387-0.53c4.411,2.455,8.817,5.035,13.226,7.564C4625.596,192.877,4631.402,193.298,4637.264,193.831
		z M4652.188,203.972c-4.138-2.797-8.267-5.701-12.41-8.433c-5.722-0.532-11.415-1.004-17.103-1.457
		c4.474,2.58,8.951,5.022,13.423,7.675C4641.443,202.456,4646.81,203.2,4652.188,203.972z M4667.485,214.366
		c-4.172-2.907-8.354-5.675-12.531-8.514c-5.298-0.774-10.609-1.578-15.876-2.274c4.119,2.46,8.238,5.076,12.357,7.603
		C4656.757,212.165,4662.134,213.303,4667.485,214.366z M4682.153,224.818c-3.858-2.767-7.712-5.644-11.576-8.352
		c-5.248-1.057-10.536-2.219-15.752-3.2c4.214,2.601,8.433,5.113,12.644,7.778C4672.341,222.235,4677.257,223.56,4682.153,224.818z
		 M4696.666,235.384c-3.782-2.788-7.567-5.53-11.352-8.263c-4.587-1.192-9.175-2.392-13.745-3.531
		c3.788,2.42,7.573,5.013,11.355,7.49C4687.496,232.49,4692.078,233.922,4696.666,235.384z M4711.021,246.03
		c-3.566-2.702-7.138-5.34-10.707-7.992c-4.351-1.402-8.675-2.709-13.018-4.074c3.756,2.476,7.514,4.906,11.27,7.434
		C4702.722,242.962,4706.857,244.43,4711.021,246.03z M4724.444,256.469c-3.208-2.495-6.411-5.034-9.625-7.487
		c-3.646-1.414-7.262-2.692-10.894-4.049c3.253,2.212,6.501,4.529,9.752,6.787C4717.264,253.296,4720.846,254.837,4724.444,256.469z
		 M4738.623,267.492c-3.008-2.398-6.027-4.666-9.038-7.027c-3.369-1.544-6.751-3.16-10.112-4.656
		c2.843,1.995,5.685,3.988,8.528,6.01C4731.532,263.633,4735.085,265.631,4738.623,267.492z M4750.854,277.461
		c-2.042-1.667-4.08-3.426-6.125-5.075l-7.159-3.823c2.282,1.654,4.569,3.329,6.851,5.016
		C4746.566,274.865,4748.708,276.165,4750.854,277.461z M4760.797,285.7l-2.463-2.042c-0.834-0.512-1.666-1.007-2.5-1.509
		c0.866,0.652,1.729,1.302,2.598,1.949C4759.221,284.633,4760.008,285.16,4760.797,285.7z M218.599,763.62
		c-0.995-0.46-1.992-0.939-2.987-1.401c1.619,1.064,3.237,2.145,4.859,3.226l2.398,1.323
		C221.444,765.723,220.023,764.678,218.599,763.62z M230.48,769.189c-1.766-0.8-3.535-1.678-5.301-2.485
		c2.408,1.781,4.814,3.549,7.222,5.33c1.69,0.924,3.382,1.877,5.072,2.801C235.144,772.953,232.817,771.101,230.48,769.189z
		 M241.65,774.111c-2.048-0.914-4.093-1.77-6.14-2.692c3.053,2.488,6.093,4.92,9.138,7.379c2.156,1.169,4.316,2.407,6.467,3.569
		C247.962,779.62,244.819,776.919,241.65,774.111z M253.029,779.098c-2.34-1.026-4.677-2.039-7.017-3.074
		c3.687,3.259,7.346,6.412,11.018,9.61c2.311,1.236,4.619,2.449,6.93,3.672C260.317,785.911,256.695,782.583,253.029,779.098z
		 M264.854,784.279c-2.627-1.132-5.259-2.31-7.885-3.456c3.922,3.725,7.804,7.297,11.707,10.935
		c2.498,1.316,4.993,2.589,7.491,3.893C272.408,791.901,268.634,788.103,264.854,784.279z M276.627,789.419
		c-2.769-1.17-5.54-2.435-8.309-3.621c4.056,4.097,8.075,8.066,12.105,12.065c2.69,1.4,5.388,2.814,8.083,4.201
		C284.56,797.893,280.594,793.657,276.627,789.419z M288.082,794.098c-2.785-1.155-5.564-2.241-8.351-3.412
		c4.232,4.518,8.441,8.959,12.647,13.391c2.903,1.489,5.814,3.062,8.717,4.531C296.759,803.779,292.435,798.982,288.082,794.098z
		 M299.591,798.797c-2.835-1.155-5.672-2.304-8.509-3.476c4.538,5.088,9.049,10.095,13.573,15.14
		c2.835,1.429,5.667,2.817,8.501,4.23C308.627,809.371,304.116,804.098,299.591,798.797z M311.109,803.499
		c-2.887-1.153-5.772-2.366-8.659-3.534c4.632,5.423,9.262,10.846,13.897,16.283c2.877,1.427,5.743,2.792,8.617,4.203
		C320.363,814.853,315.715,809.119,311.109,803.499z M322.595,808.128c-2.914-1.143-5.833-2.351-8.749-3.511
		c4.706,5.734,9.462,11.613,14.155,17.315c2.974,1.453,5.948,2.914,8.923,4.35C332.178,820.313,327.362,814.157,322.595,808.128z
		 M333.839,812.385c-2.898-1.113-5.79-2.158-8.686-3.29c4.911,6.21,9.854,12.498,14.737,18.635c3.048,1.469,6.109,3.019,9.157,4.465
		C343.993,825.64,338.927,819.034,333.839,812.385z M345.154,816.669c-2.945-1.11-5.888-2.216-8.833-3.344
		c5.219,6.82,10.399,13.546,15.576,20.263c3.022,1.428,6.038,2.823,9.057,4.232C355.695,830.788,350.46,823.821,345.154,816.669z
		 M356.606,821.006c-3-1.108-6.004-2.283-9.004-3.408c5.382,7.249,10.686,14.31,16.024,21.442c3.022,1.409,6.038,2.745,9.062,4.134
		C367.332,835.797,362.004,828.488,356.606,821.006z M368.011,825.238c-3-1.085-6.004-2.22-9.007-3.323
		c5.464,7.569,10.86,14.975,16.284,22.443c3.061,1.401,6.119,2.805,9.178,4.187C378.986,840.786,373.53,833.089,368.011,825.238z
		 M379.226,829.162c-2.974-1.058-5.948-2.05-8.925-3.122c5.604,7.964,11.144,15.784,16.711,23.666c3.09,1.392,6.191,2.86,9.28,4.232
		C390.606,845.683,384.945,837.494,379.226,829.162z M390.485,833.098c-3-1.043-6.004-2.09-9.007-3.15
		c5.796,8.443,11.536,16.752,17.3,25.127c3.074,1.361,6.146,2.703,9.22,4.045C402.161,850.443,396.352,841.835,390.485,833.098z
		 M401.782,837.046c-3.024-1.028-6.051-2.126-9.078-3.173c5.914,8.81,11.773,17.496,17.666,26.253
		c3.064,1.334,6.119,2.588,9.183,3.901C413.626,855.027,407.73,846.097,401.782,837.046z M413.026,840.876
		c-3.016-1.004-6.035-2.04-9.057-3.065c5.998,9.12,11.944,18.128,17.921,27.209c3.09,1.322,6.18,2.634,9.265,3.937
		C425.109,859.585,419.093,850.289,413.026,840.876z M3936.656,408.106c-3.13,2.668-6.151,5.449-9.257,8.142
		c1.474-1.188,2.956-2.368,4.432-3.551c4.988-4.203,10.06-8.317,15.11-12.452C3943.5,402.85,3940.073,405.472,3936.656,408.106z
		 M3976.726,374.961c-5.693,4.565-11.281,9.245-16.905,13.883c5.225-3.864,10.41-7.78,15.687-11.576
		c5.267-4.132,10.533-8.261,15.853-12.331C3986.459,368.247,3981.585,371.593,3976.726,374.961z M4015.138,345.077
		c-6.851,5.166-13.581,10.457-20.335,15.722c5.385-3.607,10.836-7.128,16.274-10.663c6.959-5.155,13.913-10.312,20.969-15.359
		C4026.382,338.172,4020.747,341.607,4015.138,345.077z M4052.023,318.031c-7.751,5.512-15.358,11.177-22.993,16.811
		c6.159-3.707,12.36-7.348,18.582-10.958c7.556-5.265,15.116-10.527,22.777-15.672
		C4064.243,311.447,4058.108,314.701,4052.023,318.031z M4087.157,293.741c-8.236,5.536-16.324,11.228-24.438,16.893
		c6.675-3.564,13.344-7.135,20.09-10.589c8.052-5.285,16.156-10.51,24.315-15.67
		C4100.428,287.429,4093.785,290.576,4087.157,293.741z M4122.619,270.737c-8.736,5.555-17.424,11.16-26.039,16.846
		c6.391-2.981,12.847-5.844,19.295-8.72c8.606-5.334,17.34-10.524,26.083-15.701C4135.5,265.663,4129.022,268.13,4122.619,270.737z
		 M4155.938,250.35c-9.088,5.392-18.174,10.782-27.094,16.358c6.864-2.747,13.736-5.466,20.664-8.09
		c8.701-5.08,17.534-10.007,26.386-14.914C4169.2,245.838,4162.573,248.101,4155.938,250.35z M4188.922,231.224
		c-9.099,5.116-18.15,10.285-27.097,15.572c6.69-2.229,13.41-4.398,20.159-6.504c8.551-4.712,17.176-9.345,25.865-13.903
		C4201.532,227.981,4195.194,229.527,4188.922,231.224z M4219.974,214.088c-8.736,4.671-17.353,9.467-25.962,14.277
		c6.499-1.723,13.039-3.353,19.585-4.962c8.512-4.425,17.013-8.864,25.639-13.153
		C4232.782,211.44,4226.383,212.785,4219.974,214.088z M4251.158,197.863c-8.88,4.511-17.679,9.118-26.441,13.755
		c6.441-1.275,12.889-2.534,19.377-3.701c8.462-4.154,16.982-8.243,25.557-12.266
		C4263.481,196.371,4257.291,197.036,4251.158,197.863z M4281.434,183.123c-8.877,4.202-17.763,8.394-26.491,12.771
		c6.254-0.819,12.55-1.518,18.84-2.227c8.617-3.996,17.363-7.838,26.117-11.669C4293.723,182.293,4287.58,182.719,4281.434,183.123z
		 M4311.034,169.314c-8.735,3.948-17.379,7.997-25.994,12.079c6.164-0.382,12.336-0.739,18.532-1.012
		c8.328-3.639,16.663-7.275,25.096-10.791C4322.783,169.465,4316.896,169.338,4311.034,169.314z M4339.87,156.599
		c-8.588,3.689-17.092,7.47-25.578,11.276c5.964,0.045,11.938,0.138,17.924,0.286c8.293-3.424,16.634-6.796,25.03-10.094
		C4351.448,157.533,4345.653,157.034,4339.87,156.599z M4368.446,144.839c-8.585,3.441-17.179,6.872-25.638,10.466
		c5.795,0.449,11.61,1.01,17.421,1.562c8.356-3.253,16.824-6.374,25.304-9.479C4379.827,146.452,4374.142,145.678,4368.446,144.839z
		 M4396.185,133.779c-8.412,3.233-16.687,6.628-25.009,9.963c5.732,0.859,11.455,1.649,17.195,2.607
		c8.017-2.932,15.969-5.944,24.064-8.783C4407.016,136.278,4401.594,134.976,4396.185,133.779z M4423.908,123.651
		c-8.433,3.014-16.858,6.036-25.167,9.194c5.464,1.221,10.936,2.511,16.406,3.828c8.106-2.799,16.332-5.448,24.557-8.103
		C4434.441,126.918,4429.172,125.215,4423.908,123.651z M4450.654,114.22c-8.172,2.79-16.269,5.671-24.359,8.559
		c5.27,1.577,10.541,3.331,15.813,4.999c8.009-2.58,16-5.184,24.081-7.674C4461.014,118.075,4455.834,116.161,4450.654,114.22z
		 M4477.219,105.482c-8.141,2.611-16.245,5.261-24.286,7.989c5.185,1.952,10.368,3.916,15.55,5.959
		c7.909-2.419,15.9-4.74,23.907-7.04C4487.342,110,4482.275,107.782,4477.219,105.482z M442.799,873.902
		c-6.233-9.835-12.426-19.594-18.671-29.463c-2.995-0.976-5.99-1.892-8.991-2.886c6.13,9.508,12.21,18.908,18.324,28.383
		C436.572,871.243,439.688,872.614,442.799,873.902z M462.408,904.849c-6.04-9.506-12.16-19.183-18.256-28.809
		c-3.095-1.278-6.204-2.655-9.302-3.951c6.054,9.384,12.128,18.818,18.129,28.083C456.128,901.754,459.265,903.285,462.408,904.849z
		 M482.206,935.917c-6.109-9.587-12.17-19.068-18.311-28.723c-3.129-1.551-6.254-3.084-9.388-4.657
		c6.104,9.417,12.134,18.667,18.206,28.019C475.889,932.403,479.032,934.093,482.206,935.917z M501.925,966.801
		c-6.019-9.43-12.023-18.815-18.066-28.291c-3.151-1.807-6.275-3.489-9.43-5.32c5.888,9.056,11.731,18.022,17.598,27.033
		C495.316,962.382,498.64,964.668,501.925,966.801z M521.241,997.052c-5.761-9.003-11.591-18.148-17.395-27.242
		c-3.264-2.114-6.564-4.399-9.833-6.538c5.761,8.858,11.549,17.767,17.271,26.532C514.601,992.212,517.933,994.67,521.241,997.052z
		 M540.597,1027.245c-5.73-8.926-11.462-17.858-17.224-26.856c-3.282-2.356-6.591-4.81-9.881-7.191
		c5.733,8.778,11.431,17.477,17.132,26.183C533.954,1022.02,537.275,1024.634,540.597,1027.245z M559.995,1057.381
		c-5.672-8.812-11.31-17.553-16.992-26.398c-3.287-2.577-6.58-5.182-9.873-7.783c5.659,8.627,11.273,17.161,16.916,25.752
		C553.373,1051.8,556.673,1054.561,559.995,1057.381z M579.398,1087.533c-5.548-8.602-11.141-17.306-16.726-25.988
		c-3.274-2.778-6.541-5.519-9.825-8.324c5.564,8.48,11.141,16.988,16.666,25.381
		C572.829,1081.639,576.095,1084.521,579.398,1087.533z M598.646,1117.362c-5.404-8.352-10.844-16.789-16.287-25.231
		c-3.253-2.954-6.475-5.816-9.736-8.796c5.314,8.074,10.612,16.112,15.892,24.108
		C591.884,1110.721,595.288,1114.112,598.646,1117.362z M617.628,1146.611c-5.161-7.961-10.289-15.845-15.453-23.808
		c-3.282-3.171-6.622-6.513-9.915-9.709c5.23,7.897,10.425,15.728,15.653,23.619
		C611.169,1140.059,614.383,1143.289,617.628,1146.611z M636.492,1175.674c-4.977-7.655-9.983-15.376-14.987-23.093
		c-3.158-3.223-6.298-6.393-9.465-9.64c4.922,7.433,9.852,14.882,14.742,22.245C630.022,1168.685,633.265,1172.202,636.492,1175.674
		z M655.242,1204.544c-4.711-7.223-9.488-14.599-14.25-21.939c-3.114-3.339-6.254-6.759-9.373-10.122
		c4.74,7.144,9.47,14.265,14.168,21.318C648.928,1197.351,652.11,1201.019,655.242,1204.544z M673.866,1232.992
		c-4.461-6.825-8.891-13.581-13.336-20.369c-2.927-3.288-5.885-6.661-8.82-9.97c4.527,6.762,9.044,13.509,13.579,20.294
		C668.163,1226.334,671.003,1229.627,673.866,1232.992z M691.877,1260.502c-4.014-6.126-8.046-12.29-12.078-18.446
		c-2.627-3.077-5.217-6.059-7.851-9.154c4.032,6.03,8.07,12.074,12.078,18.052C686.658,1254.177,689.25,1257.295,691.877,1260.502z
		 M709.272,1287.068c-3.419-5.2-6.883-10.503-10.339-15.788c-2.342-2.851-4.669-5.669-7.017-8.533
		c3.522,5.263,7.03,10.501,10.512,15.678C704.721,1281.328,706.988,1284.177,709.272,1287.068z M726.417,1313.076
		c-2.835-4.298-5.625-8.504-8.451-12.789l-5.206-6.574c2.908,4.295,5.825,8.613,8.746,12.945L726.417,1313.076z M742.488,1337.402
		l-4.972-7.526l-2.735-3.575c1.785,2.64,3.582,5.308,5.364,7.939L742.488,1337.402z M795.952,1415.488l1.098,1.65
		c916.988,1302.217,1389.337,1587.549,1708.637,1389.002c219.46-136.466,366.808-501.582,536.554-922.207
		c194.548-482.082,418.521-1037.034,814.279-1404.626c2.106-2.039,4.167-4.126,6.28-6.157
		c-379.649,340.667-607.155,856.308-807.807,1311.328c-178.908,405.707-336.547,763.176-561.895,905.529
		C2163.885,2897.971,1690.423,2646.464,795.952,1415.488z M771.485,1378.785c1.758,2.653,3.477,5.22,5.222,7.847
		c907.023,1254.499,1384.554,1511.321,1715.635,1302.173c224.979-142.117,382.537-499.401,561.351-904.9
		c206.481-468.233,441.383-1000.623,841.17-1340.711c7.02-6.403,14.16-12.685,21.272-18.992
		c-393.159,313.606-634.765,815.525-850.119,1263.069c-187.099,388.822-354.437,736.575-584.304,884.26
		C2139.781,2791.213,1659.802,2568.036,771.485,1378.785z M749.702,1345.809c2.706,4.099,5.427,8.223,8.12,12.292
		C1654.894,2563.851,2137.75,2790.834,2480.946,2570.34c229.53-147.469,396.786-495.053,583.793-883.686
		c219.176-455.48,465.514-967.259,871.07-1279.753c8.228-7.036,16.616-13.906,25.001-20.782
		c-401.49,286.24-655.458,770.218-884.459,1206.766c-194.174,370.153-370.445,706.177-603.618,858.734
		C2117.765,2683.865,1631.214,2490.821,749.702,1345.809z M728.007,1312.968c3.532,5.344,7.072,10.706,10.62,16.077
		c888.486,1158.212,1377.353,1354.291,1733.33,1121.387c232.87-152.362,409.057-488.225,603.139-858.203
		c232.112-442.473,489.87-933.632,900.804-1218.485c8.57-6.875,17.256-13.634,25.981-20.347
		c-407.907,258.832-673.685,723.642-916.204,1147.966c-199.828,349.626-383.918,671.719-618.886,828.497
		C2097.967,2575.954,1604.022,2414.479,728.007,1312.968z M707.064,1281.165c4.027,6.146,8.03,12.235,12.02,18.302
		c881.564,1112.072,1377.303,1275.838,1746.919,1029.217c234.683-156.591,418.7-478.547,618.441-828.024
		c245.259-429.11,514.274-899.609,929.953-1156.861c8.912-6.72,17.929-13.33,26.997-19.888
		c-413.816,231.316-691.372,676.989-947.777,1088.815c-203.683,327.15-394.054,632.916-628.893,792.975
		C2081.074,2467.184,1578.929,2339.493,707.064,1281.165z M686.816,1250.234c4.409,6.739,8.823,13.494,13.202,20.167
		c876.179,1066.642,1379.667,1196.015,1763.909,934.128c234.589-159.891,424.883-465.532,628.488-792.552
		c258.724-415.551,538.965-865.548,958.937-1095.266c9.038-6.414,18.208-12.685,27.399-18.937
		c-419.024,203.832-708.367,630.224-979.006,1029.211c-205.237,302.57-399.755,589.333-632.025,751.339
		C2067.93,2357.169,1556.459,2266.129,686.816,1250.234z M666.649,1219.431c4.753,7.258,9.486,14.482,14.239,21.749
		c873.207,1022.848,1385.752,1115.164,1786.021,835.984c232.059-161.855,426.505-448.514,631.667-750.975
		c272.569-401.835,564.106-831.438,987.916-1033.766c9.373-6.279,18.903-12.381,28.455-18.466
		c-424.291,176.19-725.783,583.862-1011.385,970.168c-203.786,275.636-399.508,540.366-626.061,702.411
		C2059.674,2245.395,1537.177,2194.813,666.649,1219.431z M646.541,1188.601c5.038,7.744,10.049,15.436,15.052,23.104
		c873.51,981.283,1396.859,1032.819,1815.086,733.676c226.372-161.913,422.028-426.556,625.743-702.099
		c287.471-388.831,590.997-799.353,1019.607-973.905c9.063-5.72,18.245-11.308,27.471-16.849
		c-429.513,148.436-743.62,537.822-1045.017,911.585c-198.306,245.924-391.133,485.051-607.776,644.339
		C2058.176,2130.882,1522.251,2126.07,646.541,1188.601z M626.408,1157.579c5.222,8.054,10.454,16.127,15.637,24.096
		c878.255,942.6,1414.952,948.316,1853.821,625.634c216.499-159.182,409.267-398.235,607.513-644.085
		c303.045-375.808,618.944-767.382,1052.015-914.252c9.081-5.419,18.227-10.765,27.46-16.017
		c-435.127,120.36-762.644,492.283-1081.005,853.926c-187.194,212.641-371.235,421.705-572.178,574
		C2066.504,2011.917,1513.67,2061.057,626.408,1157.579z M606.592,1127.041c5.327,8.221,10.625,16.37,15.947,24.572
		c889.397,907.905,1442.825,859.387,1906.277,508.133c200.828-152.206,384.824-361.217,571.968-573.804
		c320.003-363.51,649.22-737.457,1087.653-856.122c8.759-4.935,17.495-9.897,26.375-14.695
		c-441.218,91.872-783.174,447.177-1119.922,797.201c-167.554,174.157-333.829,346.988-510.442,485.412
		C2090.352,1884.993,1515.581,2002.818,606.592,1127.041z M586.328,1095.716c5.648,8.753,11.268,17.44,16.887,26.122
		c910.792,879.647,1486.026,762.228,1980.363,374.785c176.524-138.354,342.767-311.154,510.292-485.278
		c338.224-351.56,681.707-708.423,1125.691-798.688c8.983-4.793,18.05-9.495,27.17-14.134
		c-448.632,62.297-806.735,402.4-1163.997,741.79c-132.909,126.262-265.712,252.419-403.04,364.146
		C2142.758,1741.305,1536.882,1957.076,586.328,1095.716z M566.328,1064.643c5.688,8.843,11.397,17.726,17.042,26.475
		c952.062,864.785,1558.296,649.251,2095.432,212.243c137.265-111.678,270.055-237.824,402.956-364.077
		c358.609-340.666,718.045-682.105,1169.019-742.864c8.825-4.45,17.782-8.752,26.752-13.037
		c-457.012,31.702-833.121,357.719-1213.16,687.29C2397.021,1449.401,1717.343,2038.323,566.328,1064.643z M546.382,1033.651
		c5.777,8.984,11.51,17.883,17.269,26.829c1152.361,977.123,1832.249,388.016,2499.793-190.879
		c381.297-330.667,758.649-657.752,1217.693-687.949c8.765-4.178,17.532-8.349,26.415-12.394
		c-466.732-0.408-863.232,313.132-1268.904,633.945C2358.41,1341.15,1652.293,1899.162,546.382,1033.651z M526.476,1002.649
		c5.862,9.148,11.668,18.18,17.5,27.265c1107.014,868.452,1813.362,310.28,2493.795-227.82
		c406.867-321.759,804.525-636.168,1273.042-634.272c8.588-3.875,17.229-7.687,25.93-11.431
		c-477.923-34.379-897.821,268.077-1332.493,581.306C2313.207,1235.679,1584.745,1760.396,526.476,1002.649z M506.676,971.638
		c5.898,9.235,11.823,18.541,17.671,27.675c1059.135,760.203,1787.842,235.353,2479.077-262.765
		c435.806-314.051,856.773-617.295,1336.259-581.453c8.562-3.652,17.237-7.175,25.931-10.678
		c-491.01-70.99-938.115,222.398-1405.947,529.53C2260.304,1133.08,1514.613,1622.592,506.676,971.638z M486.462,939.977
		c6.138,9.626,12.236,19.17,18.353,28.744c1008.593,652.975,1754.523,163.294,2454.073-295.962
		c468.93-307.853,917.054-601.896,1409.456-529.44c8.415-3.388,16.761-6.856,25.262-10.14
		c-505.96-110.531-984.799,175.988-1490.475,478.607C2198.37,1033.549,1441.472,1486.285,486.462,939.977z M466.319,908.396
		c6.204,9.752,12.313,19.297,18.487,28.988c955.505,547.969,1712.648,95.062,2417.598-326.814
		c506.744-303.259,986.563-590.328,1493.759-478.326c8.367-3.19,16.869-6.226,25.37-9.265
		C3898.263-31.167,3381.812,250.995,2832.585,551.155C2126.153,937.225,1365.483,1352.696,466.319,908.396z M446.429,877.007
		c6.146,9.707,12.318,19.467,18.403,29.043c899.517,445.648,1660.445,30.041,2367.074-356.14
		c550.262-300.723,1067.644-583.42,1592.012-427.802c8.167-2.921,16.313-5.862,24.554-8.689
		c-542.879-202.08-1103.916,78.749-1702.93,378.753C2042.221,844.416,1286.567,1222.812,446.429,877.007z M426.218,845.11
		c6.306,9.964,12.565,19.822,18.858,29.759c840.383,346.891,1596.3-31.614,2299.832-383.963
		c600.036-300.512,1161.983-581.81,1705.844-378.238c8.115-2.762,16.316-5.421,24.53-8.066
		c-565.401-255.873-1180.12,27.735-1836.347,330.673C1944.731,755.744,1204.106,1097.49,426.218,845.11z M0,157.008
		c150.077,246.928,291.501,475.203,425.023,686.214c778.026,253.201,1518.906-88.669,2213.32-409.234
		c657.192-303.385,1272.781-587.389,1839.029-330.074c155.823-49.889,329.07-79.19,522.628-82.969v1.417
		c-192.769,3.764-365.384,32.865-520.694,82.433c5.09,2.324,10.186,4.538,15.266,6.95C4645.913,68.477,4813.517,45.266,5000,46.73
		v1.415c-185.683-1.453-352.637,21.575-503.451,64.524c4.89,2.333,9.762,4.878,14.649,7.293
		c147.003-36.824,309.13-54.126,488.802-47.527v1.418c-178.877-6.573-340.348,10.574-486.833,47.088
		c4.951,2.461,9.907,4.85,14.85,7.395C4670.611,97.893,4827.201,86.424,5000,98.053v1.418
		c-171.981-11.58-327.899-0.269-469.93,29.886c4.772,2.472,9.528,5.122,14.294,7.673c138.284-24.237,289.487-30.017,455.636-13.454
		v1.426c-165.343-16.491-315.881-10.838-453.611,13.124c4.803,2.582,9.606,5.134,14.399,7.799
		c133.94-18.107,279.725-18.304,439.212,3.075v1.428c-158.65-21.285-303.75-21.211-437.09-3.356
		c4.664,2.605,9.32,5.324,13.976,8.007c129.647-12.135,270.131-6.863,423.114,19.235v1.442
		c-152.159-25.98-291.961-31.353-421.011-19.445c4.629,2.681,9.262,5.386,13.886,8.146c125.36-6.288,260.58,4.344,407.125,35.05
		v1.449c-145.677-30.545-280.162-41.251-404.891-35.189c4.554,2.728,9.104,5.486,13.655,8.294
		c121.083-0.549,251.063,15.31,391.235,50.503v1.463c-139.286-34.991-268.497-50.859-388.914-50.499
		c4.453,2.764,8.904,5.609,13.355,8.446c116.848,5.035,241.64,25.934,375.559,65.498v1.48
		c-132.967-39.306-256.918-60.164-373.051-65.392c4.461,2.861,8.928,5.651,13.386,8.589
		c112.524,10.511,232.054,36.317,359.665,80.076v1.498c-126.666-43.466-245.361-69.211-357.154-79.868
		c4.24,2.805,8.465,5.752,12.697,8.627c108.373,15.828,222.871,46.41,344.457,94.305v1.526
		c-120.557-47.521-234.133-77.996-341.693-93.951c4.296,2.934,8.602,5.752,12.889,8.758
		c104.057,21.003,213.377,56.218,328.804,108.027v1.553c-114.334-51.361-222.679-86.424-325.846-107.507
		c3.951,2.785,7.883,5.765,11.826,8.61c99.974,26.035,204.405,65.782,314.02,121.478v1.59
		c-108.462-55.161-211.848-94.694-310.859-120.766c3.956,2.871,7.917,5.706,11.868,8.639
		c95.776,30.889,195.245,75.032,298.991,134.408v1.634c-102.433-58.687-200.699-102.533-295.346-133.388
		c3.64,2.719,7.267,5.546,10.902,8.318c91.697,35.605,186.362,84.038,284.444,147.018v1.69
		c-96.6-62.073-189.874-109.979-280.275-145.464c3.553,2.732,7.106,5.501,10.657,8.285
		c87.512,40.136,177.258,92.478,269.618,158.752v1.748c-90.554-65.04-178.593-116.65-264.483-156.505
		c3.348,2.652,6.701,5.259,10.046,7.959c83.166,44.407,167.883,100.435,254.437,169.684v1.816
		c-84.627-67.789-167.501-122.93-248.891-166.907c2.698,2.198,5.391,4.472,8.085,6.7c79.284,48.621,159.484,108.42,240.806,180.843
		v1.889c-78.763-70.255-156.484-128.704-233.333-176.538c2.321,1.941,4.646,3.801,6.964,5.767
		c75.096,52.529,150.517,115.733,226.369,190.84v2.002c-71.778-71.13-143.166-131.521-214.264-182.377
		c0.776,0.673,1.55,1.372,2.324,2.047c70.872,56.122,141.505,122.29,211.94,199.723v2.098
		c-62.429-68.753-125.018-128.673-187.794-180.542c63.289,57.386,125.889,123.523,187.794,199.137v2.258
		c-70.072-85.671-141.042-159.103-212.882-221.587c-9.865-7.811-19.738-15.387-29.613-22.843
		c-10.344-7.013-20.685-13.926-31.019-20.543c-10.462-6.068-20.906-11.931-31.336-17.582c-10.852-5.232-21.672-10.229-32.477-15.074
		c-11.923-4.666-23.812-9.147-35.659-13.383c-12.528-3.841-25.004-7.449-37.422-10.805c-13.21-2.95-26.344-5.628-39.414-8.079
		c-13.832-1.969-27.568-3.635-41.23-5.092c-12.034-0.775-23.994-1.361-35.885-1.761c-14.968,0.065-29.831,0.386-44.546,1.046
		c-15.861,1.271-31.584,2.839-47.145,4.754c-16.697,2.624-33.229,5.569-49.576,8.873c-17.58,4.133-34.966,8.609-52.141,13.462
		c-18.526,5.783-36.782,12.009-54.817,18.597c-19.442,7.632-38.556,15.772-57.422,24.281c-20.269,9.667-40.17,19.859-59.773,30.464
		c-21.185,11.968-41.968,24.468-62.376,37.449c-23.546,15.528-46.576,31.691-69.111,48.455
		c-28.576,21.871-56.38,44.631-83.356,68.308c-29.42,26.434-57.833,53.939-85.411,82.289
		c-404.877,424.052-612.051,1040.725-787.016,1561.665c-114.674,341.434-215.543,641.749-349.242,819.884h-1.774
		c133.862-177.81,234.841-478.439,349.673-820.333c159.053-473.564,344.702-1026.221,681.236-1441.515
		c-317.505,385.101-505.007,893.559-668.318,1336.594c-155.697,422.385-289.477,785.259-493.181,925.255h-2.532
		c204.297-138.861,338.327-502.387,494.381-925.742c179.227-486.214,387.511-1051.247,764.797-1445.673
		c-357.377,366.02-567.796,887.362-751.855,1343.457c-169.844,420.858-317.271,786.176-537.123,922.884
		c-315.349,196.092-779.441-78.547-1671.459-1334.288c592.416,859.378,995.614,1291.763,1289.352,1439.362h-2.998
		c-286.989-145.532-677.941-561.543-1246.392-1379.166c494.924,732.482,855.186,1164.74,1128.06,1379.166h-1.992
		c-283.641-223.379-661.343-681.301-1185.756-1465.514c-12.818-18.66-25.815-37.723-38.825-56.819
		c-12.505-17.829-25.009-35.658-37.659-53.823c-10.975-15.308-22.046-30.833-33.153-46.443
		c-12.455-16.961-24.996-34.119-37.617-51.46c-10.678-14.189-21.383-28.436-32.161-42.864
		c-11.699-15.124-23.541-30.599-35.395-46.103c-11.197-14.071-22.377-28.107-33.679-42.448
		c-10.57-12.891-21.256-26.07-31.939-39.247c-10.976-12.953-21.922-25.82-33.003-39.044c-10.157-11.574-20.414-23.417-30.66-35.223
		c-10.352-11.345-20.648-22.529-31.084-34.107c-9.641-10.119-19.385-20.554-29.107-30.912c-10.352-10.36-20.767-20.904-31.2-31.511
		c-9.502-9.032-19.019-18.117-28.576-27.334c-9.804-8.779-19.577-17.44-29.444-26.448c-9.02-7.568-18.003-14.975-27.073-22.742
		c-8.393-6.528-16.774-13-25.207-19.709c-8.333-5.929-16.669-11.879-25.036-17.98c-8.222-5.266-16.455-10.593-24.704-16.025
		c-8.093-4.539-16.2-9.217-24.307-13.907C130.527,721.76,65.387,686.305,0,646.009v-1.661
		c60.207,37.138,120.207,70.169,179.995,99.382C120.42,708.651,60.431,669.773,0,626.746v-1.732
		c65.877,46.956,131.235,88.977,196.093,126.485c0.908,0.434,1.819,0.844,2.724,1.276C133.288,708.929,67.029,660.402,0,606.788
		v-1.817c70.014,56.038,139.189,106.517,207.574,151.908c1.732,0.813,3.461,1.627,5.193,2.433
		C142.902,707.121,72.007,649.567,0,586.193v-1.897c74.267,65.396,147.351,124.579,219.344,178.101c2.164,1,4.33,2.054,6.493,3.043
		C151.951,704.828,76.705,638.197,0,565.041v-1.967c78.579,74.975,155.623,143.083,231.243,204.901
		c2.277,1.033,4.551,1.99,6.83,3.013C160.466,702.031,81.14,626.31,0,543.413v-2.035c82.661,84.48,163.437,161.495,242.432,231.519
		c2.55,1.137,5.096,2.227,7.643,3.35C168.828,698.854,85.506,614.018,0,521.334v-2.09
		c86.825,94.168,171.405,180.259,253.831,258.649c2.793,1.226,5.588,2.465,8.38,3.673C177.284,695.566,89.931,601.501,0,498.859
		v-2.15c91.154,104.094,179.666,199.39,265.675,286.377c2.85,1.224,5.706,2.54,8.557,3.748C185.67,692.126,94.321,588.724,0,476.041
		v-2.202C95.46,587.934,187.876,692.53,277.438,788.212c2.824,1.192,5.643,2.28,8.465,3.456
		C193.808,688.248,98.598,575.583,0,452.917v-2.259C99.672,574.703,195.882,688.524,288.903,792.89
		c2.893,1.201,5.78,2.359,8.672,3.54C201.983,684.313,102.891,562.275,0,429.518v-2.315
		C103.92,561.33,203.963,684.517,300.431,797.598c2.929,1.191,5.859,2.412,8.783,3.584C210.132,680.264,107.173,548.78,0,405.874
		v-2.361c108.168,144.275,212.043,276.922,311.957,398.79c2.972,1.187,5.951,2.474,8.923,3.641
		C218.304,676.148,111.466,535.13,0,381.999v-2.406C112.4,534.049,220.092,676.2,323.443,806.922
		c2.924,1.143,5.843,2.192,8.767,3.319C226.274,671.705,115.653,521.19,0,357.923v-2.443
		c116.556,164.584,228.001,316.213,334.692,455.699c2.966,1.141,5.933,2.249,8.901,3.372C234.281,667.196,119.859,507.137,0,333.669
		v-2.497C120.749,505.967,235.978,667.168,346.02,815.47c3.019,1.139,6.038,2.311,9.057,3.43
		C242.345,662.63,124.107,492.984,0,309.23v-2.531c124.994,185.1,244.024,355.874,357.475,513.109c3.04,1.12,6.08,2.317,9.115,3.42
		C250.425,657.979,128.374,478.736,0,284.636v-2.572c129.227,195.42,252.036,375.781,368.882,541.966
		c2.993,1.082,5.98,2.071,8.973,3.134C258.332,652.999,132.551,464.241,0,259.901v-2.608
		c133.388,205.669,259.924,395.566,380.105,570.66c3.019,1.069,6.03,2.111,9.049,3.163C266.27,647.993,136.741,449.662,0,235.028
		v-2.635C137.573,448.364,267.847,647.851,391.37,831.89c3.037,1.055,6.077,2.149,9.115,3.186
		C274.229,642.954,140.947,435.013,0,210.042v-2.67C141.773,433.696,275.798,642.813,402.672,835.84
		c3.043,1.035,6.088,2.124,9.13,3.14C282.191,637.867,145.153,420.278,0,184.943v-2.701
		c145.948,236.655,283.691,455.37,413.913,657.415c3.008,1,6.009,1.912,9.017,2.895C290.019,632.497,149.29,405.346,0,159.74
		V157.008z"/>
</g>
</svg>
